<?xml version="1.0" encoding="UTF-8"?>
<svg id="Capa_1" data-name="Capa 1" xmlns="http://www.w3.org/2000/svg" viewBox="91 0 415 238.64">
  <defs>
    <style>
      .cls-1 {
        fill: #00e7ff;
      }
    </style>
  </defs>
  <path class="cls-1" d="M98.82,60.12v58.88c4.38-13.85,16.41-24.25,31.72-24.25,21.51,0,39.56,18.23,39.56,49.95s-18.96,49.95-39.01,49.95c-15.13,0-27.89-10.21-32.63-24.43v22.24h-21.51V60.12h21.88ZM147.13,144.7c0-21.15-11.3-32.45-24.97-32.45-12.21,0-23.7,8.75-23.7,29.9v5.1c0,21.33,11.48,30.08,23.7,30.08,13.67,0,24.97-11.48,24.97-32.63Z"/>
  <path class="cls-1" d="M202.73,96.94v25.89c3.46-17.5,12.21-27.16,24.61-27.16,3.28,0,5.29.18,7.29.91v20.78h-9.84c-13.67,0-21.69,6.75-21.69,26.25v48.86h-21.88v-95.52h21.51Z"/>
  <path class="cls-1" d="M296.98,192.46c-1.64-5.29-2.37-10.76-2.55-18.96-4.74,12.03-15.68,21.15-31.17,21.15-13.49,0-26.8-8.02-26.8-25.89,0-16.41,10.94-26.25,35.55-30.44l22.06-3.65v-4.19c0-13.49-6.56-19.14-18.05-19.14s-17.68,3.83-18.41,18.96h-19.32c.73-24.43,16.77-35.55,39.56-35.55,26.62,0,37.74,12.94,37.74,35.37v35.18c0,12.03,1.09,20.6,2.92,27.16h-21.51ZM272.37,178.43c12.4,0,22.06-6.75,22.06-21.33v-9.48l-16.41,2.55c-13.85,2.19-19.87,7.47-19.87,15.86,0,7.66,4.56,12.4,14.22,12.4Z"/>
  <path class="cls-1" d="M353.49,96.94v20.05c4.92-13.31,16.04-22.24,32.27-22.24,19.69,0,30.44,13.67,30.44,35.73v61.98h-21.88v-55.97c0-15.31-7.29-24.06-20.05-24.06s-20.42,8.75-20.42,24.06v55.97h-21.88v-95.52h21.51Z"/>
  <path class="cls-1" d="M498.24,192.46v-22.06c-4.38,13.85-16.77,24.25-32.08,24.25-21.33,0-39.56-18.23-39.56-49.95s18.96-49.95,39.01-49.95c14.77,0,27.34,9.84,32.27,23.33v-57.97h21.88v132.35h-21.51ZM449.56,144.7c0,21.15,11.3,32.63,24.97,32.63,12.21,0,23.7-8.75,23.7-30.08v-5.1c0-21.15-11.48-29.9-23.7-29.9-13.67,0-24.97,11.3-24.97,32.45Z"/>
</svg>