<?xml version="1.0" encoding="UTF-8"?>
<svg id="Capa_1" data-name="Capa 1" xmlns="http://www.w3.org/2000/svg" viewBox="0 0 560 238.64" preserveAspectRatio="xMinYMid meet">
  <defs>
    <style>
      .cls-1 {
        fill: #5b00ea;
      }
    </style>
  </defs>
  <g transform="translate(14,0)">
  <path class="cls-1" d="M47.96,61.76v19.87h-21.88v-19.87h21.88ZM47.96,96.94v95.52h-21.88v-95.52h21.88Z"/>
  <path class="cls-1" d="M86.42,96.94v19.51c4.74-12.94,14.95-21.69,29.9-21.69,13.49,0,24.25,7.29,26.98,24.43,4.19-14.58,14.77-24.43,30.81-24.43,18.59,0,28.07,13.67,28.07,35.73v61.98h-21.88v-55.97c0-15.31-6.02-24.06-17.68-24.06s-18.23,8.75-18.23,24.06v55.97h-21.88v-55.97c0-15.31-6.02-24.06-17.5-24.06s-18.23,8.75-18.23,24.06v55.97h-21.88v-95.52h21.51Z"/>
  <path class="cls-1" d="M273.64,192.46c-1.64-5.29-2.37-10.76-2.55-18.96-4.74,12.03-15.68,21.15-31.17,21.15-13.49,0-26.8-8.02-26.8-25.89,0-16.41,10.94-26.25,35.55-30.44l22.06-3.65v-4.19c0-13.49-6.56-19.14-18.05-19.14s-17.68,3.83-18.41,18.96h-19.32c.73-24.43,16.77-35.55,39.56-35.55,26.62,0,37.74,12.94,37.74,35.37v35.18c0,12.03,1.09,20.6,2.92,27.16h-21.51ZM249.03,178.43c12.4,0,22.06-6.75,22.06-21.33v-9.48l-16.41,2.55c-13.85,2.19-19.87,7.47-19.87,15.86,0,7.66,4.56,12.4,14.22,12.4Z"/>
  <path class="cls-1" d="M321.95,194.65c3.1,10.39,12.4,16.59,26.25,16.59,17.68,0,26.25-10.94,26.25-28.07v-16.41c-4.74,13.67-17.14,23.7-32.63,23.7-20.05,0-39.01-17.68-39.01-47.58s18.96-48.13,40.11-48.13c14.95,0,27.16,10.21,31.72,24.06v-21.88h21.51v86.59c0,26.98-16.41,44.12-47.94,44.12-26.8,0-42.84-12.4-45.03-33h18.78ZM325.78,142.88c0,19.69,11.48,30.81,25.16,30.81,12.03,0,23.7-8.2,23.7-27.89v-5.1c0-19.69-11.67-28.44-23.7-28.44-13.67,0-25.16,11.12-25.16,30.63Z"/>
  <path class="cls-1" d="M429.33,147.07c.91,20.42,11.49,30.81,25.7,30.81,12.21,0,19.69-7.84,21.69-17.14h18.78c-2.92,20.05-18.96,33.91-41.2,33.91-27.34,0-47.03-19.69-47.03-49.95s19.87-49.95,46.49-49.95c28.99,0,43.02,21.69,41.56,52.32h-65.99ZM430.42,132.49h44.48c-2-16.41-10.94-22.24-20.96-22.24-12.21,0-20.6,7.66-23.52,22.24Z"/>
  <path class="cls-1" d="M518.29,164.03c.91,9.12,7.11,14.58,21.15,14.58,10.94,0,17.5-3.83,17.5-11.3s-6.38-10.21-20.78-13.85c-20.78-5.29-33.54-12.21-33.54-30.26,0-16.77,14.4-28.44,36.46-28.44,24.06,0,36.28,11.85,36.28,29.17h-18.96c-.73-8.57-7.11-13.13-17.32-13.13-9.12,0-15.68,2.92-15.68,10.57s6.2,10.21,20.23,13.67c22.06,5.47,34.45,12.94,34.45,30.63s-15.13,28.99-38.65,28.99c-25.89,0-39.92-11.48-40.11-30.63h18.96Z"/>
  </g>
</svg>
