<svg width="168" height="169" viewBox="0 0 168 169" fill="none" xmlns="http://www.w3.org/2000/svg">
<g id="Logos">
<g id="Apple">
<path id="Subtract" fill-rule="evenodd" clip-rule="evenodd" d="M20.4622 35.355C16.8 42.5852 16.8 52.0501 16.8 70.9799V98.0199C16.8 116.95 16.8 126.415 20.4622 133.645C23.6835 140.005 28.8237 145.175 35.1459 148.416C42.3333 152.1 51.7422 152.1 70.56 152.1H97.44C116.258 152.1 125.667 152.1 132.854 148.416C139.176 145.175 144.316 140.005 147.538 133.645C151.2 126.415 151.2 116.95 151.2 98.0199V70.9799C151.2 52.0501 151.2 42.5852 147.538 35.355C144.316 28.9951 139.176 23.8244 132.854 20.5839C125.667 16.8999 116.258 16.8999 97.44 16.8999H70.56C51.7422 16.8999 42.3333 16.8999 35.1459 20.5839C28.8237 23.8244 23.6835 28.9951 20.4622 35.355ZM116.092 111.581C118.744 107.515 119.738 105.455 121.8 100.848C106.798 95.1363 104.385 73.7992 119.237 65.607C114.695 59.9252 108.344 56.6333 102.338 56.6333C98.0005 56.6333 95.0311 57.7653 92.3326 58.7942C90.0851 59.651 88.0255 60.4362 85.5201 60.4362C82.8166 60.4362 80.4213 59.5758 77.9117 58.6743C75.1506 57.6824 72.251 56.6408 68.6503 56.6408C61.9038 56.6408 54.7241 60.7744 50.1816 67.8092C43.7639 77.7299 44.8621 96.384 55.247 112.295C58.9602 117.969 63.9136 124.357 70.391 124.418C73.0806 124.446 74.8702 123.645 76.8066 122.779C79.0229 121.787 81.4316 120.71 85.6023 120.69C89.811 120.653 92.1857 121.746 94.3787 122.755C96.2616 123.622 98.0106 124.427 100.672 124.403C107.142 124.357 112.379 117.263 116.092 111.581ZM100.589 35.9124C101.389 41.2786 99.1923 46.5472 96.301 50.2825C93.2154 54.2808 87.8885 57.3698 82.7408 57.2045C81.7995 52.0712 84.2201 46.7651 87.1413 43.1876C90.3614 39.2644 95.8751 36.2356 100.589 35.9124Z" fill="#D9D9D9"/>
</g>
</g>
</svg>
