<svg width="168" height="168" viewBox="0 0 168 168" fill="none" xmlns="http://www.w3.org/2000/svg">
<g id="Logos">
<g id="SocialFacebook">
<path id="Subtract" d="M20.4622 35.146C16.8 42.3334 16.8 51.7423 16.8 70.56V97.44C16.8 116.258 16.8 125.667 20.4622 132.854C23.6835 139.176 28.8237 144.317 35.1459 147.538C42.3333 151.2 51.7422 151.2 70.56 151.2H73.7625V103.425H56.7V83.6621H73.7625V68.5997C73.7625 51.4648 83.7949 42 99.1449 42C106.497 42 114.187 43.3353 114.187 43.3353V60.1604H105.714C97.3658 60.1604 94.7625 65.4306 94.7625 70.8373V83.6621H113.4L110.421 103.425H94.7625V151.2H97.44C116.258 151.2 125.667 151.2 132.854 147.538C139.176 144.317 144.316 139.176 147.538 132.854C151.2 125.667 151.2 116.258 151.2 97.44V70.56C151.2 51.7423 151.2 42.3334 147.538 35.146C144.316 28.8237 139.176 23.6836 132.854 20.4622C125.667 16.8 116.258 16.8 97.44 16.8H70.56C51.7422 16.8 42.3333 16.8 35.1459 20.4622C28.8237 23.6836 23.6835 28.8237 20.4622 35.146Z" fill="#D9D9D9"/>
</g>
</g>
</svg>
