<svg width="168" height="168" viewBox="0 0 168 168" fill="none" xmlns="http://www.w3.org/2000/svg">
<g id="Logos">
<g id="SocialInstagram">
<g id="Icon">
<path d="M65.345 84.0019C65.345 73.7146 73.7144 65.3451 84.0018 65.3451C94.2892 65.3451 102.659 73.7146 102.659 84.0019C102.659 94.2893 94.2892 102.659 84.0018 102.659C73.7144 102.659 65.345 94.2893 65.345 84.0019Z" fill="#D9D9D9"/>
<path fill-rule="evenodd" clip-rule="evenodd" d="M42.9571 61.6137C42.9571 51.3264 51.3265 42.9569 61.6139 42.9569H106.39C116.678 42.9569 125.047 51.3264 125.047 61.6137V106.39C125.047 116.677 116.678 125.047 106.39 125.047H61.6139C51.3265 125.047 42.9571 116.677 42.9571 106.39V61.6137ZM57.8822 84.0019C57.8822 98.405 69.6025 110.121 84.0018 110.121C98.4011 110.121 110.121 98.405 110.121 84.0019C110.121 69.5989 98.4011 57.8824 84.0018 57.8824C69.6025 57.8824 57.8822 69.5989 57.8822 84.0019ZM111.987 61.6137C115.078 61.6137 117.584 59.1078 117.584 56.0167C117.584 52.9255 115.078 50.4196 111.987 50.4196C108.896 50.4196 106.39 52.9255 106.39 56.0167C106.39 59.1078 108.896 61.6137 111.987 61.6137Z" fill="#D9D9D9"/>
<path fill-rule="evenodd" clip-rule="evenodd" d="M46.7517 151.2L121.379 151.129C137.797 151.114 151.219 137.67 151.2 121.248L151.129 46.6211C151.11 30.2031 137.666 16.7851 121.248 16.8001L46.6211 16.871C30.2031 16.8896 16.7851 30.3337 16.8 46.7517L16.8709 121.379C16.8896 137.797 30.3337 151.215 46.7517 151.2ZM61.6139 132.51H106.39C120.79 132.51 132.51 120.793 132.51 106.39V61.6137C132.51 47.2107 120.79 35.4942 106.39 35.4942H61.6139C47.2145 35.4942 35.4943 47.2107 35.4943 61.6137V106.39C35.4943 120.793 47.2145 132.51 61.6139 132.51Z" fill="#D9D9D9"/>
</g>
</g>
</g>
</svg>
