<svg width="168" height="169" viewBox="0 0 168 169" fill="none" xmlns="http://www.w3.org/2000/svg">
<g id="Logos">
<g id="LinkedIn">
<path id="Subtract" fill-rule="evenodd" clip-rule="evenodd" d="M20.4622 35.355C16.8 42.5852 16.8 52.0501 16.8 70.9799V98.0199C16.8 116.95 16.8 126.415 20.4622 133.645C23.6835 140.005 28.8237 145.175 35.1459 148.416C42.3334 152.1 51.7422 152.1 70.56 152.1H97.44C116.258 152.1 125.667 152.1 132.854 148.416C139.176 145.175 144.316 140.005 147.538 133.645C151.2 126.415 151.2 116.95 151.2 98.0199V70.9799C151.2 52.0501 151.2 42.5852 147.538 35.355C144.316 28.9951 139.176 23.8244 132.854 20.5839C125.667 16.8999 116.258 16.8999 97.44 16.8999H70.56C51.7422 16.8999 42.3334 16.8999 35.1459 20.5839C28.8237 23.8244 23.6835 28.9951 20.4622 35.355ZM50.3918 67.5843H63.8278V118.269H50.3918V67.5843ZM57.0695 60.8264H56.9956C52.9849 60.8264 50.3918 57.8191 50.3918 54.065C50.3918 50.2299 53.0656 47.3104 57.1467 47.3104C61.2346 47.3104 63.7505 50.2299 63.8278 54.065C63.8278 57.8191 61.2346 60.8264 57.0695 60.8264ZM120.931 86.1688C120.931 75.9034 112.661 67.5843 102.456 67.5843C96.2017 67.5843 90.6829 70.72 87.3407 75.5047V67.5843H73.9047V118.269H87.3407V91.2372C87.3407 85.6383 91.8518 81.1003 97.4177 81.1003C102.984 81.1003 107.495 85.6383 107.495 91.2372V118.269H120.931V86.1688Z" fill="#D9D9D9"/>
</g>
</g>
</svg>
