<svg width="168" height="169" viewBox="0 0 168 169" fill="none" xmlns="http://www.w3.org/2000/svg">
<g id="Logos">
<g id="Messenger">
<g id="Subtract">
<path d="M108.084 70.9386L95.223 80.517C93.8466 81.5611 91.9739 81.5611 90.6201 80.5397L81.6537 73.7508C77.8631 70.9136 72.4932 71.8896 69.9436 75.8844L67.2135 80.1742L57.9402 95.3362C56.5864 97.4698 59.1811 99.8984 61.1892 98.3777L74.05 88.7993C75.4263 87.7552 77.2991 87.7552 78.6528 88.7766L87.6193 95.5654C91.4098 98.4026 96.7798 97.4266 99.3294 93.4319L102.059 89.142L111.333 73.9801C112.687 71.8465 110.092 69.4179 108.084 70.9386Z" fill="#D9D9D9"/>
<path fill-rule="evenodd" clip-rule="evenodd" d="M20.4622 35.355C16.8 42.5852 16.8 52.0501 16.8 70.9799V98.0199C16.8 116.95 16.8 126.415 20.4622 133.645C23.6835 140.005 28.8237 145.175 35.1459 148.416C42.3333 152.1 51.7422 152.1 70.56 152.1H97.44C116.258 152.1 125.667 152.1 132.854 148.416C139.176 145.175 144.316 140.005 147.538 133.645C151.2 126.415 151.2 116.95 151.2 98.0199V70.9799C151.2 52.0501 151.2 42.5852 147.538 35.355C144.316 28.9951 139.176 23.8244 132.854 20.5839C125.667 16.8999 116.258 16.8999 97.44 16.8999H70.56C51.7422 16.8999 42.3333 16.8999 35.1459 20.5839C28.8237 23.8244 23.6835 28.9951 20.4622 35.355ZM129.758 82.2851C129.758 106.73 109.564 126.545 84.6319 126.545C80.9068 126.545 77.299 126.105 73.8378 125.265C72.7887 125.011 71.6921 125.109 70.7264 125.594L60.8507 130.563C58.3011 131.845 55.3002 129.979 55.3002 127.11V117.975C55.3002 116.67 54.7203 115.453 53.7637 114.572C44.9777 106.492 39.5062 95.0184 39.5062 82.2851C39.5062 57.8399 59.7 38.0249 84.6319 38.0249C109.564 38.0249 129.758 57.8399 129.758 82.2851Z" fill="#D9D9D9"/>
</g>
</g>
</g>
</svg>
