<svg width="168" height="168" viewBox="0 0 168 168" fill="none" xmlns="http://www.w3.org/2000/svg">
<g id="Logos">
<g id="POS">
<g id="Subtract">
<path d="M91.547 62.1798C92.4953 62.4818 92.8995 63.4981 92.5832 64.4417L89.6647 73.1509C89.261 74.3556 87.8887 74.9195 86.688 74.5039C84.7463 73.832 82.7058 73.4706 80.6417 73.4378C73.9369 73.4378 73.6418 77.6305 73.6418 78.6921C73.6418 80.962 75.9769 82.6814 78.8038 84.7631C83.1401 87.9561 88.6339 92.0016 88.6339 100.193C88.6339 110.81 81.929 117.663 72.8507 117.663C69.7965 117.752 66.7576 117.2 63.9287 116.043C61.4792 115.041 59.2341 113.605 57.2998 111.806C56.744 111.289 56.5596 110.494 56.7791 109.767L58.4002 104.4C58.8393 102.946 60.659 102.39 61.9293 103.223C64.0359 104.604 67.1008 106.227 69.8737 106.227C70.4503 106.253 71.0261 106.16 71.5657 105.955C72.1053 105.75 72.5974 105.436 73.0117 105.033C73.4261 104.631 73.754 104.147 73.9754 103.613C74.1967 103.079 74.3068 102.505 74.2989 101.927C74.2989 98.6323 71.9336 96.718 69.2778 94.5686C65.8781 91.8171 62.0022 88.6803 62.0022 81.7695C62.0022 71.3817 69.458 61.3299 84.4769 61.3299C87.788 61.2301 90.1397 61.7317 91.547 62.1798Z" fill="#D9D9D9"/>
<path d="M76.9889 43.993C80.1804 43.3614 81.7761 46.4387 81.1593 49.1936C80.5425 51.9484 78.3969 54.3673 75.6613 54.5689C72.9257 54.7704 71.6384 52.4188 71.8529 50.0402C71.9991 48.6302 72.568 47.2977 73.4848 46.2182C74.4017 45.1387 75.6233 44.3629 76.9889 43.993Z" fill="#D9D9D9"/>
<path fill-rule="evenodd" clip-rule="evenodd" d="M20.4622 35.146C16.8 42.3334 16.8 51.7423 16.8 70.56V97.44C16.8 116.258 16.8 125.667 20.4622 132.854C23.6835 139.176 28.8237 144.317 35.1459 147.538C42.3333 151.2 51.7422 151.2 70.56 151.2H97.44C116.258 151.2 125.667 151.2 132.854 147.538C139.176 144.317 144.316 139.176 147.538 132.854C151.2 125.667 151.2 116.258 151.2 97.44V70.56C151.2 51.7423 151.2 42.3334 147.538 35.146C144.316 28.8237 139.176 23.6836 132.854 20.4622C125.667 16.8 116.258 16.8 97.44 16.8H70.56C51.7422 16.8 42.3333 16.8 35.1459 20.4622C28.8237 23.6836 23.6835 28.8237 20.4622 35.146ZM108.287 49.086L99.3959 37.1394C98.6314 36.0091 97.593 35.0918 96.3781 34.4736C95.1631 33.8554 93.8114 33.5566 92.4496 33.6051C91.164 33.6981 89.8918 33.9278 88.6547 34.2905L71.5841 38.5101L64.8792 40.1496C63.0759 40.5783 61.5116 41.6974 60.5211 43.2672L51.322 56.7055C50.3895 57.9684 49.7774 59.4395 49.5385 60.9923C49.3738 62.1224 49.233 63.2645 49.0935 64.396L49.0692 64.5937C47.5941 76.1864 46.1011 87.806 44.5903 99.4525L42.5788 115.014C42.5339 115.363 42.4674 115.765 42.3954 116.201C41.9521 118.881 41.2986 122.832 44.1478 123.641C46.0098 124.173 47.9805 124.487 49.9343 124.799C50.8928 124.952 51.8481 125.104 52.7836 125.281L100.174 134.284C102.668 134.768 104.988 133.747 105.538 130.992C105.641 130.289 105.69 129.579 105.685 128.869C105.873 125.214 106.047 121.572 106.221 117.917L108.045 80.5583C108.474 71.5368 108.921 62.5197 109.386 53.5072C109.613 51.9459 109.218 50.3578 108.287 49.086ZM113.873 124.987C113.983 122.756 114.089 120.529 114.196 118.303L116.02 80.9375C116.444 72.0246 116.885 63.1159 117.344 54.2117C117.529 52.5698 117.421 50.9214 117.038 49.34C117.707 50.1315 118.141 51.1013 118.282 52.1381L127.776 122.017C127.901 122.531 127.9 123.069 127.773 123.582C127.645 124.096 127.396 124.572 127.045 124.968C126.695 125.364 126.254 125.669 125.76 125.857C125.266 126.046 124.734 126.111 124.209 126.048L113.873 124.987Z" fill="#D9D9D9"/>
</g>
</g>
</g>
</svg>
