<svg width="168" height="169" viewBox="0 0 168 169" fill="none" xmlns="http://www.w3.org/2000/svg">
<g id="Logos">
<g id="Whatsapp">
<g id="Subtract">
<path fill-rule="evenodd" clip-rule="evenodd" d="M66.5683 116.727C72.409 120.208 79.0699 122.044 85.8539 122.027C106.739 122.027 123.736 104.924 123.752 83.8926C123.761 78.8857 122.784 73.9278 120.881 69.3005C118.978 64.6738 116.189 60.4694 112.67 56.9272C109.159 53.3851 104.975 50.5753 100.382 48.6578C95.7879 46.7402 90.8578 45.7526 85.8785 45.752C64.9605 45.752 47.9637 62.8609 47.9637 83.8843C47.9473 91.0599 49.9652 98.0926 53.7715 104.161L54.6656 105.605L50.8348 119.667L65.1738 115.895L66.5683 116.727ZM98.8476 89.753C99.2496 89.9005 100.332 90.4034 101.579 90.998C103.556 91.9439 105.935 93.1219 106.641 93.4752L107.092 93.7062L107.887 94.1178C108.339 94.3648 108.65 94.584 108.814 94.8532C109.093 95.3256 109.093 97.6223 108.142 100.296C107.19 102.971 102.646 105.415 100.455 105.74C99.0937 105.971 97.7156 106.021 96.3457 105.892C95.8699 105.847 95.4023 105.78 94.9348 105.692C94.3769 105.587 93.8273 105.453 93.2859 105.288L91.1121 104.553L89.6683 104.027C88.7988 103.697 87.8391 103.316 86.7972 102.865C76.1293 98.2353 68.9202 87.835 67.5462 85.8527L67.3394 85.5636C67.1344 85.2877 66.5437 84.4893 65.8465 83.3371C65.4855 82.7455 65.1 82.0606 64.7226 81.3056C64.0336 79.9198 63.3855 78.2967 63.0164 76.5782C62.8113 75.6427 62.6883 74.6782 62.6883 73.7081C62.6883 68.4007 65.2947 65.6241 66.4766 64.3649L66.675 64.1467C67.0605 63.7114 67.5281 63.3602 68.0449 63.1142C68.5699 62.8687 69.1359 62.734 69.7183 62.7181H69.9562L70.8258 62.7206L71.8922 62.7526L72.1547 62.7567C72.8191 62.7536 73.6558 62.75 74.4598 64.7248C75.3867 67.0215 77.6754 72.6627 77.9625 73.2383C78.0445 73.3992 78.1183 73.5663 78.1676 73.7406C78.307 74.1893 78.3234 74.6855 78.0527 75.2445L77.8969 75.5648L77.8654 75.6302C77.5948 76.1927 77.3947 76.6087 76.9207 77.161C76.7156 77.3942 76.5105 77.6458 76.3137 77.897L76.2398 77.9806L76.1414 78.1002L76.1053 78.1441C75.7904 78.5279 75.4907 78.893 75.2062 79.1673C74.632 79.7269 74.0414 80.3736 74.7058 81.498C75.3703 82.6228 77.6672 86.3816 81.0469 89.4178C82.8023 90.9954 84.4512 92.1327 85.8621 92.9656C87.3551 93.8429 88.5855 94.3834 89.414 94.747L90.2097 95.109C91.3418 95.6898 91.998 95.584 92.6625 94.8213C93.3351 94.0585 95.5008 91.4926 96.2801 90.3337C97.0512 89.1749 97.8058 89.3698 98.8476 89.753Z" fill="#D9D9D9"/>
<path fill-rule="evenodd" clip-rule="evenodd" d="M20.4622 35.355C16.8 42.5852 16.8 52.0501 16.8 70.9799V98.0199C16.8 116.95 16.8 126.415 20.4622 133.645C23.6835 140.005 28.8237 145.175 35.1459 148.416C42.3333 152.1 51.7422 152.1 70.56 152.1H97.44C116.258 152.1 125.667 152.1 132.854 148.416C139.176 145.175 144.316 140.005 147.538 133.645C151.2 126.415 151.2 116.95 151.2 98.0199V70.9799C151.2 52.0501 151.2 42.5852 147.538 35.355C144.316 28.9951 139.176 23.8244 132.854 20.5839C125.667 16.8999 116.258 16.8999 97.44 16.8999H70.56C51.7422 16.8999 42.3333 16.8999 35.1459 20.5839C28.8237 23.8244 23.6835 28.9951 20.4622 35.355ZM103.31 41.494C106.255 42.721 109.052 44.2538 111.661 46.0641C113.966 47.6603 116.115 49.4721 118.084 51.4804C120.045 53.4439 121.816 55.5791 123.383 57.8566C125.212 60.5091 126.755 63.3555 127.993 66.3505C130.29 71.9169 131.463 77.8857 131.447 83.9111C131.447 109.195 110.988 129.762 85.8457 129.762C78.2414 129.759 70.7519 127.838 64.0664 124.173L39.9 130.554L46.3723 106.795C42.3773 99.8266 40.2773 91.9217 40.2855 83.8766C40.2855 58.5921 60.7359 38.0251 85.8457 38.0251C91.8422 38.0065 97.773 39.1855 103.31 41.494Z" fill="#D9D9D9"/>
</g>
</g>
</g>
</svg>
