<?xml version="1.0" encoding="UTF-8"?>
<svg id="Capa_2" data-name="Capa 2" xmlns="http://www.w3.org/2000/svg" viewBox="0 0 271.08 165.89">
  <defs>
    <style>
      .cls-1 {
        fill: #00E7FF;
      }
    </style>
  </defs>
  <g id="Capa_1-2" data-name="Capa 1">
    <g>
      <path class="cls-1" d="M60.52,132.35c-1.64-5.29-2.37-10.76-2.55-18.96-4.74,12.03-15.68,21.15-31.17,21.15-13.49,0-26.8-8.02-26.8-25.89,0-16.41,10.94-26.25,35.55-30.44l22.06-3.65v-4.19c0-13.49-6.56-19.14-18.05-19.14s-17.68,3.83-18.41,18.96H1.82c.73-24.43,16.77-35.55,39.56-35.55,26.62,0,37.74,12.94,37.74,35.37v35.18c0,12.03,1.09,20.6,2.92,27.16h-21.51ZM35.91,118.31c12.4,0,22.06-6.75,22.06-21.33v-9.48l-16.41,2.55c-13.85,2.19-19.87,7.47-19.87,15.86,0,7.66,4.56,12.4,14.22,12.4Z"/>
      <path class="cls-1" d="M161.33,132.35v-22.06c-4.38,13.86-16.77,24.25-32.08,24.25-21.33,0-39.56-18.23-39.56-49.95s18.96-49.95,39.01-49.95c14.77,0,27.34,9.84,32.27,23.33V0h21.88v132.35h-21.51ZM112.66,84.59c0,21.15,11.3,32.63,24.97,32.63,12.21,0,23.7-8.75,23.7-30.08v-5.1c0-21.15-11.48-29.9-23.7-29.9-13.67,0-24.97,11.3-24.97,32.45Z"/>
      <path class="cls-1" d="M211.28,103.91c.91,9.12,7.11,14.58,21.15,14.58,10.94,0,17.5-3.83,17.5-11.3s-6.38-10.21-20.78-13.85c-20.78-5.29-33.54-12.21-33.54-30.26,0-16.77,14.4-28.44,36.46-28.44,24.06,0,36.28,11.85,36.28,29.17h-18.96c-.73-8.57-7.11-13.12-17.32-13.12-9.12,0-15.68,2.92-15.68,10.57s6.2,10.21,20.23,13.67c22.06,5.47,34.45,12.94,34.45,30.63s-15.13,28.99-38.65,28.99c-25.89,0-39.92-11.49-40.11-30.63h18.96Z"/>
    </g>
  </g>
</svg>