<?xml version="1.0" encoding="UTF-8"?>
<svg id="Capa_2" data-name="Capa 2" xmlns="http://www.w3.org/2000/svg" viewBox="0 0 279.63 167.98">
  <defs>
    <style>
      .cls-1 {
        fill: red;
      }
    </style>
  </defs>
  <g id="Capa_1-2" data-name="Capa 1">
    <g>
      <path class="cls-1" d="M71.48,132.35l.07-22.06c-4.42,13.84-16.85,24.19-32.17,24.14C18.06,134.36-.11,116.07,0,84.35s19.13-49.89,39.18-49.82c14.77.05,27.31,9.94,32.19,23.44l.19-57.97,21.87.07-.44,132.35-21.51-.07ZM22.97,84.42c-.07,21.15,11.19,32.67,24.86,32.71,12.21.04,23.73-8.67,23.8-30l.02-5.1c.07-21.15-11.38-29.93-23.6-29.98-13.67-.05-25.01,11.22-25.08,32.36Z"/>
      <path class="cls-1" d="M165.18,132.66c-1.62-5.29-2.33-10.76-2.49-18.97-4.78,12.02-15.75,21.09-31.24,21.04-13.49-.05-26.77-8.11-26.71-25.98.06-16.41,11.03-26.21,35.65-30.32l22.07-3.57v-4.19c.06-13.49-6.48-19.16-17.97-19.2-10.94-.04-17.7,3.77-18.48,18.9l-19.32-.06c.81-24.43,16.89-35.49,39.68-35.42,26.62.09,37.69,13.07,37.62,35.49l-.12,35.18c-.04,12.03,1.02,20.6,2.82,27.17l-21.51-.07ZM140.62,118.54c12.4.04,22.08-6.67,22.13-21.25l.03-9.48-16.42,2.5c-13.86,2.14-19.9,7.41-19.92,15.79-.03,7.66,4.52,12.41,14.18,12.44Z"/>
      <path class="cls-1" d="M205.17,167.98c-5.83-.02-10.75-.4-15.13-1.14l.05-16.22,12.4.04c11.12.04,15.87-3.41,20.66-17.8l.37-1.27-37.78-94.38,23.33.08,14.63,39.06c3.25,9.13,6.86,19.53,10.47,30.66l23.57-69.56,21.88.07-38.44,100.5c-8.28,21.67-18.88,30.01-36.01,29.96Z"/>
    </g>
  </g>
</svg>