<?xml version="1.0" encoding="UTF-8"?>
<svg id="Capa_1" data-name="Capa 1" xmlns="http://www.w3.org/2000/svg" viewBox="0 0 760 238.64" preserveAspectRatio="xMinYMid meet">
  <defs>
    <style>
      .cls-1 {
        fill: red;
      }
    </style>
  </defs>
  <g transform="translate(-144,0)">
  <path class="cls-1" d="M232.35,185.36v-22.06c-4.38,13.85-16.77,24.25-32.08,24.25-21.33,0-39.56-18.23-39.56-49.95s18.96-49.95,39.01-49.95c14.77,0,27.34,9.84,32.27,23.33v-57.97h21.88v132.35h-21.51ZM183.68,137.6c0,21.15,11.3,32.63,24.97,32.63,12.21,0,23.7-8.75,23.7-30.08v-5.1c0-21.15-11.48-29.9-23.7-29.9-13.67,0-24.97,11.3-24.97,32.45Z"/>
  <path class="cls-1" d="M326.05,185.36c-1.64-5.29-2.37-10.76-2.55-18.96-4.74,12.03-15.68,21.15-31.17,21.15-13.49,0-26.8-8.02-26.8-25.89,0-16.41,10.94-26.25,35.55-30.44l22.06-3.65v-4.19c0-13.49-6.56-19.14-18.05-19.14s-17.68,3.83-18.41,18.96h-19.32c.73-24.43,16.77-35.55,39.56-35.55,26.62,0,37.74,12.94,37.74,35.37v35.18c0,12.03,1.09,20.6,2.92,27.16h-21.51ZM301.44,171.33c12.4,0,22.06-6.75,22.06-21.33v-9.48l-16.41,2.55c-13.85,2.19-19.87,7.47-19.87,15.86,0,7.66,4.56,12.4,14.22,12.4Z"/>
  <path class="cls-1" d="M366.16,220.55c-5.83,0-10.76-.36-15.13-1.09v-16.22h12.4c11.12,0,15.86-3.46,20.6-17.87l.36-1.28-38.1-94.25h23.33l14.77,39.01c3.28,9.12,6.93,19.51,10.57,30.63l23.33-69.64h21.88l-38.1,100.63c-8.2,21.69-18.78,30.08-35.91,30.08Z"/>
  </g>
</svg>
