<?xml version="1.0" encoding="UTF-8"?>
<svg id="Capa_2" data-name="Capa 2" xmlns="http://www.w3.org/2000/svg" viewBox="0 0 417.64 134.9">
  <defs>
    <style>
      .cls-1 {
        fill: #ffe500;
      }
    </style>
  </defs>
  <g id="Capa_1-2" data-name="Capa 1">
    <g>
      <path class="cls-1" d="M0,37.19h11.3v-4.92C11.3,10.57,22.97,0,45.03,0c1.82,0,3.65.18,5.65.55v16.59h-5.1c-9.48,0-12.4,3.46-12.4,14.58v5.47h17.5v16.95h-17.5v78.57H11.3V54.14H0v-16.95Z"/>
      <path class="cls-1" d="M95.52,35c26.62,0,47.94,19.32,47.94,49.95s-21.33,49.95-47.94,49.95-47.94-19.32-47.94-49.95,21.33-49.95,47.94-49.95ZM95.52,117.58c13.67,0,24.97-11.48,24.97-32.63s-11.3-32.63-24.97-32.63-24.97,11.49-24.97,32.63,11.3,32.63,24.97,32.63Z"/>
      <path class="cls-1" d="M216.57,70.55c-2.55-11.3-8.75-18.23-20.42-18.23-13.31,0-24.43,11.12-24.43,32.63s11.12,32.63,24.43,32.63c11.85,0,18.41-6.93,20.96-18.23h19.14c-2.73,21.33-17.14,35.55-41.2,35.55-25.7,0-46.3-19.69-46.3-49.95s21.15-49.95,46.3-49.95,38.65,13.67,40.65,35.55h-19.14Z"/>
      <path class="cls-1" d="M308.08,132.71v-19.87c-4.92,13.12-16.04,22.06-32.08,22.06-19.87,0-29.53-13.49-29.53-35.18v-62.53h21.88v55.96c0,16.59,6.74,24.06,19.5,24.06s19.87-8.75,19.87-24.06v-55.96h21.88v95.52h-21.51Z"/>
      <path class="cls-1" d="M357.85,104.27c.91,9.12,7.11,14.58,21.15,14.58,10.94,0,17.5-3.83,17.5-11.3s-6.38-10.21-20.78-13.85c-20.78-5.29-33.54-12.21-33.54-30.26,0-16.77,14.4-28.44,36.46-28.44,24.06,0,36.28,11.85,36.28,29.17h-18.96c-.73-8.57-7.11-13.13-17.32-13.13-9.12,0-15.68,2.92-15.68,10.57s6.2,10.21,20.23,13.67c22.06,5.47,34.45,12.94,34.45,30.62s-15.13,28.99-38.65,28.99c-25.89,0-39.92-11.49-40.11-30.63h18.96Z"/>
    </g>
  </g>
</svg>