<?xml version="1.0" encoding="UTF-8"?>
<svg id="Capa_2" data-name="Capa 2" xmlns="http://www.w3.org/2000/svg" viewBox="0 0 405.07 132.89">
  <defs>
    <style>
      .cls-1 {
        fill: #00d614;
      }
    </style>
  </defs>
  <g id="Capa_1-2" data-name="Capa 1">
    <g>
      <path class="cls-1" d="M19.14,99.9c3.1,10.39,12.4,16.59,26.25,16.59,17.68,0,26.25-10.94,26.25-28.07v-16.41c-4.74,13.67-17.14,23.7-32.63,23.7C18.96,95.71,0,78.02,0,48.13S18.96,0,40.11,0c14.95,0,27.16,10.21,31.72,24.06V2.19h21.51v86.59c0,26.98-16.41,44.12-47.94,44.12-26.8,0-42.84-12.4-45.03-33h18.78ZM22.97,48.13c0,19.69,11.48,30.81,25.16,30.81,12.03,0,23.7-8.2,23.7-27.89v-5.1c0-19.69-11.67-28.44-23.7-28.44-13.67,0-25.16,11.12-25.16,30.62Z"/>
      <path class="cls-1" d="M131.8,2.19v25.89c3.46-17.5,12.21-27.16,24.61-27.16,3.28,0,5.29.18,7.29.91v20.78h-9.84c-13.67,0-21.69,6.75-21.69,26.25v48.86h-21.88V2.19h21.51Z"/>
      <path class="cls-1" d="M211.1,0c26.62,0,47.94,19.32,47.94,49.95s-21.33,49.95-47.94,49.95-47.94-19.32-47.94-49.95S184.49,0,211.1,0ZM211.1,82.58c13.67,0,24.97-11.48,24.97-32.63s-11.3-32.63-24.97-32.63-24.97,11.48-24.97,32.63,11.3,32.63,24.97,32.63Z"/>
      <path class="cls-1" d="M283.66,97.71L257.78,2.19h22.97l18.96,81.3h.55L318.12,2.19h28.99l16.95,81.3h.73L383.56,2.19h21.51l-26.8,95.52h-29.17l-17.87-76.93-18.41,76.93h-29.17Z"/>
    </g>
  </g>
</svg>