<?xml version="1.0" encoding="UTF-8"?>
<svg id="Capa_1" data-name="Capa 1" xmlns="http://www.w3.org/2000/svg" viewBox="0 0 760 238.64" preserveAspectRatio="xMinYMid meet">
  <defs>
    <style>
      .cls-1 {
        fill: #00d614;
      }
    </style>
  </defs>
  <g transform="translate(-77,0)">
  <path class="cls-1" d="M116.96,194.65c3.1,10.39,12.4,16.59,26.25,16.59,17.68,0,26.25-10.94,26.25-28.07v-16.41c-4.74,13.67-17.14,23.7-32.63,23.7-20.05,0-39.01-17.68-39.01-47.58s18.96-48.13,40.11-48.13c14.95,0,27.16,10.21,31.72,24.06v-21.88h21.51v86.59c0,26.98-16.41,44.12-47.94,44.12-26.8,0-42.84-12.4-45.03-33h18.78ZM120.78,142.88c0,19.69,11.48,30.81,25.16,30.81,12.03,0,23.7-8.2,23.7-27.89v-5.1c0-19.69-11.67-28.44-23.7-28.44-13.67,0-25.16,11.12-25.16,30.63Z"/>
  <path class="cls-1" d="M229.62,96.94v25.89c3.46-17.5,12.21-27.16,24.61-27.16,3.28,0,5.29.18,7.29.91v20.78h-9.84c-13.67,0-21.69,6.75-21.69,26.25v48.86h-21.88v-95.52h21.51Z"/>
  <path class="cls-1" d="M308.92,94.75c26.62,0,47.94,19.32,47.94,49.95s-21.33,49.95-47.94,49.95-47.94-19.32-47.94-49.95,21.33-49.95,47.94-49.95ZM308.92,177.33c13.67,0,24.97-11.48,24.97-32.63s-11.3-32.63-24.97-32.63-24.97,11.48-24.97,32.63,11.3,32.63,24.97,32.63Z"/>
  <path class="cls-1" d="M381.48,192.46l-25.89-95.52h22.97l18.96,81.3h.55l17.87-81.3h28.99l16.95,81.3h.73l18.78-81.3h21.51l-26.8,95.52h-29.17l-17.87-76.93-18.41,76.93h-29.17Z"/>
  </g>
</svg>
