<?xml version="1.0" encoding="UTF-8"?>
<svg id="Capa_2" data-name="Capa 2" xmlns="http://www.w3.org/2000/svg" viewBox="0 0 525.06 116.24">
  <defs>
    <style>
      .cls-1 {
        fill: #fff;
      }
    </style>
  </defs>
  <g id="Capa_1-2" data-name="Capa 1">
    <g>
      <g>
        <path class="cls-1" d="M111.19,85.82c.91,9.05,7.06,14.49,21,14.49,10.86,0,17.38-3.8,17.38-11.23s-6.34-10.14-20.64-13.76c-20.64-5.25-33.32-12.13-33.32-30.06,0-16.66,14.3-28.24,36.21-28.24,23.9,0,36.03,11.77,36.03,28.97h-18.83c-.72-8.51-7.06-13.04-17.2-13.04-9.05,0-15.57,2.9-15.57,10.5s6.16,10.14,20.1,13.58c21.91,5.43,34.22,12.85,34.22,30.42s-15.03,28.79-38.38,28.79c-25.71,0-39.65-11.4-39.83-30.42h18.83Z"/>
        <path class="cls-1" d="M201.35,19.19v19.37c4.71-12.85,14.85-21.55,29.69-21.55,13.4,0,24.08,7.24,26.8,24.26,4.16-14.48,14.67-24.26,30.6-24.26,18.47,0,27.88,13.58,27.88,35.49v61.56h-21.73v-55.58c0-15.21-5.98-23.9-17.56-23.9s-18.1,8.69-18.1,23.9v55.58h-21.73v-55.58c0-15.21-5.98-23.9-17.38-23.9s-18.11,8.69-18.11,23.9v55.58h-21.73V19.19h21.36Z"/>
        <path class="cls-1" d="M387.29,114.06c-1.63-5.25-2.35-10.68-2.54-18.83-4.71,11.95-15.57,21-30.96,21-13.4,0-26.62-7.96-26.62-25.71,0-16.3,10.86-26.07,35.31-30.24l21.91-3.62v-4.16c0-13.4-6.52-19.01-17.92-19.01s-17.56,3.8-18.29,18.83h-19.19c.72-24.26,16.66-35.31,39.29-35.31,26.43,0,37.48,12.86,37.48,35.13v34.94c0,11.95,1.09,20.46,2.9,26.98h-21.36ZM362.84,100.12c12.31,0,21.91-6.7,21.91-21.18v-9.42l-16.3,2.54c-13.76,2.17-19.73,7.42-19.73,15.75,0,7.6,4.53,12.31,14.12,12.31Z"/>
        <path class="cls-1" d="M443.41,19.19v25.71c3.44-17.38,12.13-26.98,24.44-26.98,3.26,0,5.25.18,7.24.91v20.64h-9.78c-13.58,0-21.55,6.7-21.55,26.07v48.52h-21.73V19.19h21.36Z"/>
        <path class="cls-1" d="M525.06,36.03v-16.84h-19.92V0h-21.73v89.62c0,17.38,9.42,25.71,26.07,25.71,6.52,0,11.59-.54,15.57-1.27v-16.11h-6.88c-9.23,0-13.03-3.26-13.03-12.49v-49.43h19.92Z"/>
      </g>
      <g>
        <path class="cls-1" d="M36.03,18.13l20.11,58.6h-13.87l-4.02-12.72h-21.17l-3.94,12.72H0L20.11,18.13h15.92ZM35.45,54.57l-8.04-25.52-7.8,25.52h15.84Z"/>
        <path class="cls-1" d="M74.36,18.13v58.6h-12.47V18.13h12.47Z"/>
      </g>
    </g>
  </g>
</svg>