<?xml version="1.0" encoding="UTF-8"?>
<svg id="Capa_1" data-name="Capa 1" xmlns="http://www.w3.org/2000/svg" viewBox="0 0 760 238.64" preserveAspectRatio="xMinYMid meet">
  <defs>
    <style>
      .cls-1 {
        fill: #900090;
      }
    </style>
  </defs>
  <g transform="translate(-2,0)">
  <path class="cls-1" d="M74.57,192.46l-32.45-95.52h23.15l24.61,79.12,24.43-79.12h21.51l-32.45,95.52h-28.8Z"/>
  <path class="cls-1" d="M164.63,61.76v19.87h-21.88v-19.87h21.88ZM164.63,96.94v95.52h-21.88v-95.52h21.88Z"/>
  <path class="cls-1" d="M247.39,192.46v-22.06c-4.38,13.85-16.77,24.25-32.08,24.25-21.33,0-39.56-18.23-39.56-49.95s18.96-49.95,39.01-49.95c14.77,0,27.34,9.84,32.27,23.33v-57.97h21.88v132.35h-21.51ZM198.72,144.7c0,21.15,11.3,32.63,24.97,32.63,12.21,0,23.7-8.75,23.7-30.08v-5.1c0-21.15-11.48-29.9-23.7-29.9-13.67,0-24.97,11.3-24.97,32.45Z"/>
  <path class="cls-1" d="M302.08,147.07c.91,20.42,11.49,30.81,25.7,30.81,12.21,0,19.69-7.84,21.69-17.14h18.78c-2.92,20.05-18.96,33.91-41.2,33.91-27.34,0-47.03-19.69-47.03-49.95s19.87-49.95,46.49-49.95c28.99,0,43.02,21.69,41.56,52.32h-65.99ZM303.18,132.49h44.48c-2-16.41-10.94-22.24-20.96-22.24-12.21,0-20.6,7.66-23.52,22.24Z"/>
  <path class="cls-1" d="M421.67,94.75c26.62,0,47.94,19.32,47.94,49.95s-21.33,49.95-47.94,49.95-47.94-19.32-47.94-49.95,21.33-49.95,47.94-49.95ZM421.67,177.33c13.67,0,24.97-11.48,24.97-32.63s-11.3-32.63-24.97-32.63-24.97,11.48-24.97,32.63,11.3,32.63,24.97,32.63Z"/>
  <path class="cls-1" d="M492.22,164.03c.91,9.12,7.11,14.58,21.15,14.58,10.94,0,17.5-3.83,17.5-11.3s-6.38-10.21-20.78-13.85c-20.78-5.29-33.54-12.21-33.54-30.26,0-16.77,14.4-28.44,36.46-28.44,24.06,0,36.28,11.85,36.28,29.17h-18.96c-.73-8.57-7.11-13.13-17.32-13.13-9.12,0-15.68,2.92-15.68,10.57s6.2,10.21,20.23,13.67c22.06,5.47,34.45,12.94,34.45,30.63s-15.13,28.99-38.65,28.99c-25.89,0-39.92-11.48-40.11-30.63h18.96Z"/>
  </g>
</svg>
