<?xml version="1.0" encoding="UTF-8"?>
<svg id="Capa_2" data-name="Capa 2" xmlns="http://www.w3.org/2000/svg" viewBox="0 0 1009.07 105.58">
  <defs>
    <style>
      .cls-1 {
        fill: #fff;
      }
    </style>
  </defs>
  <g id="Capa_1-2" data-name="Capa 1">
    <g>
      <g>
        <path class="cls-1" d="M101,77.95c.82,8.22,6.41,13.16,19.08,13.16,9.87,0,15.79-3.45,15.79-10.2s-5.76-9.21-18.75-12.5c-18.75-4.77-30.26-11.02-30.26-27.3,0-15.13,12.99-25.65,32.89-25.65,21.71,0,32.72,10.69,32.72,26.31h-17.1c-.66-7.73-6.41-11.84-15.62-11.84-8.22,0-14.14,2.63-14.14,9.54s5.59,9.21,18.25,12.33c19.9,4.93,31.08,11.68,31.08,27.63s-13.65,26.15-34.86,26.15c-23.35,0-36.01-10.36-36.18-27.63h17.1Z"/>
        <path class="cls-1" d="M182.89,17.43v17.59c4.28-11.68,13.49-19.57,26.97-19.57,12.17,0,21.87,6.58,24.34,22.04,3.78-13.16,13.32-22.04,27.79-22.04,16.77,0,25.32,12.33,25.32,32.23v55.91h-19.73v-50.49c0-13.81-5.43-21.71-15.95-21.71s-16.44,7.89-16.44,21.71v50.49h-19.73v-50.49c0-13.81-5.43-21.71-15.79-21.71s-16.45,7.89-16.45,21.71v50.49h-19.73V17.43h19.41Z"/>
        <path class="cls-1" d="M351.77,103.6c-1.48-4.77-2.14-9.7-2.3-17.1-4.28,10.85-14.14,19.08-28.12,19.08-12.17,0-24.17-7.23-24.17-23.35,0-14.8,9.87-23.68,32.07-27.46l19.9-3.29v-3.78c0-12.17-5.92-17.27-16.28-17.27s-15.95,3.45-16.61,17.1h-17.43c.66-22.04,15.13-32.07,35.69-32.07,24.01,0,34.04,11.68,34.04,31.9v31.74c0,10.85.99,18.58,2.63,24.5h-19.4ZM329.57,90.94c11.18,0,19.9-6.08,19.9-19.24v-8.55l-14.8,2.3c-12.5,1.97-17.92,6.74-17.92,14.31,0,6.91,4.11,11.18,12.83,11.18Z"/>
        <path class="cls-1" d="M402.74,17.43v23.35c3.12-15.79,11.02-24.5,22.2-24.5,2.96,0,4.77.16,6.58.82v18.75h-8.88c-12.33,0-19.57,6.09-19.57,23.68v44.07h-19.73V17.43h19.41Z"/>
        <path class="cls-1" d="M476.91,32.72v-15.29h-18.09V0h-19.73v81.4c0,15.79,8.55,23.35,23.68,23.35,5.92,0,10.52-.49,14.14-1.15v-14.64h-6.25c-8.39,0-11.84-2.96-11.84-11.35v-44.9h18.09Z"/>
      </g>
      <g>
        <path class="cls-1" d="M32.72,16.47l18.26,53.23h-12.6l-3.65-11.55H15.5l-3.58,11.55H0L18.26,16.47h14.46ZM32.2,49.57l-7.31-23.18-7.08,23.18h14.39Z"/>
        <path class="cls-1" d="M67.54,16.47v53.23h-11.33V16.47h11.33Z"/>
      </g>
      <g>
        <path class="cls-1" d="M546.22,47.53c-2.3-10.2-7.89-16.45-18.42-16.45-12.01,0-22.04,10.03-22.04,29.44s10.03,29.44,22.04,29.44c10.69,0,16.61-6.25,18.91-16.44h17.27c-2.47,19.24-15.46,32.07-37.17,32.07-23.19,0-41.77-17.76-41.77-45.06s19.08-45.06,41.77-45.06,34.86,12.33,36.67,32.07h-17.27Z"/>
        <path class="cls-1" d="M611.83,15.46c24.01,0,43.25,17.43,43.25,45.06s-19.24,45.06-43.25,45.06-43.25-17.43-43.25-45.06,19.24-45.06,43.25-45.06ZM611.83,89.95c12.33,0,22.53-10.36,22.53-29.44s-10.2-29.44-22.53-29.44-22.53,10.36-22.53,29.44,10.2,29.44,22.53,29.44Z"/>
        <path class="cls-1" d="M684.51,17.43v18.09c4.44-12.01,14.47-20.06,29.11-20.06,17.76,0,27.46,12.33,27.46,32.23v55.91h-19.73v-50.49c0-13.81-6.58-21.71-18.09-21.71s-18.42,7.89-18.42,21.71v50.49h-19.73V17.43h19.41Z"/>
        <path class="cls-1" d="M777.15,104.75c-15.13,0-23.68-7.56-23.68-23.35V0h19.73v17.43h18.09v15.29h-18.09v44.9c0,8.39,3.45,11.35,11.84,11.35h6.25v14.64c-3.62.66-8.22,1.15-14.14,1.15Z"/>
        <path class="cls-1" d="M812.99,62.65c.82,18.42,10.36,27.79,23.19,27.79,11.02,0,17.76-7.07,19.57-15.46h16.94c-2.63,18.09-17.1,30.59-37.17,30.59-24.67,0-42.43-17.76-42.43-45.06s17.93-45.06,41.93-45.06c26.15,0,38.81,19.57,37.5,47.2h-59.53ZM813.98,49.5h40.13c-1.81-14.8-9.87-20.06-18.91-20.06-11.02,0-18.58,6.91-21.21,20.06Z"/>
        <path class="cls-1" d="M902.29,17.43v18.09c4.44-12.01,14.47-20.06,29.11-20.06,17.76,0,27.46,12.33,27.46,32.23v55.91h-19.73v-50.49c0-13.81-6.58-21.71-18.09-21.71s-18.42,7.89-18.42,21.71v50.49h-19.73V17.43h19.41Z"/>
        <path class="cls-1" d="M994.92,104.75c-15.13,0-23.68-7.56-23.68-23.35V0h19.73v17.43h18.09v15.29h-18.09v44.9c0,8.39,3.45,11.35,11.84,11.35h6.25v14.64c-3.62.66-8.22,1.15-14.14,1.15Z"/>
      </g>
    </g>
  </g>
</svg>