<svg width="17" height="17" viewBox="0 0 17 17" fill="none" xmlns="http://www.w3.org/2000/svg">
<path d="M3.95833 15.625C2.11738 15.625 0.625 14.1326 0.625 12.2917V2.29167C0.625 1.37119 1.37119 0.625 2.29167 0.625H5.625C6.54547 0.625 7.29167 1.37119 7.29167 2.29167V12.2917C7.29167 14.1326 5.79928 15.625 3.95833 15.625ZM3.95833 15.625H13.9583C14.8788 15.625 15.625 14.8788 15.625 13.9583V10.625C15.625 9.70453 14.8788 8.95833 13.9583 8.95833H11.2886M7.29167 4.24417L8.26833 3.2675C9.10525 2.40098 10.3446 2.05346 11.51 2.35851C12.6755 2.66356 13.5856 3.57371 13.8907 4.73914C14.1957 5.90457 13.8482 7.14392 12.9817 7.98083L7.625 11.0735" stroke="white" stroke-opacity="0.9" stroke-width="1.25" stroke-linecap="round" stroke-linejoin="round"/>
</svg>
