<svg width="18" height="18" viewBox="0 0 18 18" fill="none" xmlns="http://www.w3.org/2000/svg">
<path d="M17.2917 8.95833C17.2917 13.5607 13.5607 17.2917 8.95831 17.2917M17.2917 8.95833C17.2917 4.35596 13.5607 0.625 8.95831 0.625M17.2917 8.95833H0.625M8.95831 17.2917C4.35596 17.2917 0.625 13.5607 0.625 8.95833M8.95831 17.2917C11.0427 15.0097 12.2273 12.0483 12.2917 8.95833C12.2273 5.86836 11.0427 2.90696 8.95831 0.625M8.95831 17.2917C6.87393 15.0097 5.68937 12.0483 5.625 8.95833C5.68937 5.86836 6.87393 2.90696 8.95831 0.625M8.95831 0.625C4.35596 0.625 0.625 4.35596 0.625 8.95833" stroke="white" stroke-width="1.25" stroke-linecap="round" stroke-linejoin="round"/>
</svg>
