<svg width="17" height="17" viewBox="0 0 17 17" fill="none" xmlns="http://www.w3.org/2000/svg">
<path d="M0.625 2.5C0.625 1.46447 1.46447 0.625 2.5 0.625H4.375C5.41053 0.625 6.25 1.46447 6.25 2.5V4.375C6.25 5.41053 5.41053 6.25 4.375 6.25H2.5C1.46447 6.25 0.625 5.41053 0.625 4.375V2.5ZM10 2.5C10 1.46447 10.8395 0.625 11.875 0.625H13.75C14.7855 0.625 15.625 1.46447 15.625 2.5V4.375C15.625 5.41053 14.7855 6.25 13.75 6.25H11.875C10.8395 6.25 10 5.41053 10 4.375V2.5ZM0.625 11.875C0.625 10.8395 1.46447 10 2.5 10H4.375C5.41053 10 6.25 10.8395 6.25 11.875V13.75C6.25 14.7855 5.41053 15.625 4.375 15.625H2.5C1.46447 15.625 0.625 14.7855 0.625 13.75V11.875ZM10 11.875C10 10.8395 10.8395 10 11.875 10H13.75C14.7855 10 15.625 10.8395 15.625 11.875V13.75C15.625 14.7855 14.7855 15.625 13.75 15.625H11.875C10.8395 15.625 10 14.7855 10 13.75V11.875Z" stroke="white" stroke-opacity="0.9" stroke-width="1.25" stroke-linecap="round" stroke-linejoin="round"/>
</svg>
