<svg width="20" height="20" viewBox="0 0 20 20" fill="none" xmlns="http://www.w3.org/2000/svg">
<path d="M3.33337 5.00001C3.33337 4.07954 4.07957 3.33334 5.00004 3.33334H6.66671C7.58718 3.33334 8.33337 4.07954 8.33337 5.00001V6.66668C8.33337 7.58715 7.58718 8.33334 6.66671 8.33334H5.00004C4.07957 8.33334 3.33337 7.58715 3.33337 6.66668V5.00001V5.00001M11.6667 5.00001C11.6667 4.07954 12.4129 3.33334 13.3334 3.33334H15C15.9205 3.33334 16.6667 4.07954 16.6667 5.00001V6.66668C16.6667 7.58715 15.9205 8.33334 15 8.33334H13.3334C12.4129 8.33334 11.6667 7.58715 11.6667 6.66668V5.00001V5.00001M3.33337 13.3333C3.33337 12.4129 4.07957 11.6667 5.00004 11.6667H6.66671C7.58718 11.6667 8.33337 12.4129 8.33337 13.3333V15C8.33337 15.9205 7.58718 16.6667 6.66671 16.6667H5.00004C4.07957 16.6667 3.33337 15.9205 3.33337 15V13.3333V13.3333M11.6667 13.3333C11.6667 12.4129 12.4129 11.6667 13.3334 11.6667H15C15.9205 11.6667 16.6667 12.4129 16.6667 13.3333V15C16.6667 15.9205 15.9205 16.6667 15 16.6667H13.3334C12.4129 16.6667 11.6667 15.9205 11.6667 15V13.3333V13.3333" stroke="white" stroke-opacity="0.9" stroke-width="1.25" stroke-linecap="round" stroke-linejoin="round"/>
</svg>
