<svg width="125" height="112" viewBox="0 0 125 112" fill="none" xmlns="http://www.w3.org/2000/svg">
<path d="M95 56.5C95 71.6878 82.6878 84 67.5 84C52.3122 84 40 71.6878 40 56.5C40 41.3122 52.3122 29 67.5 29C82.6878 29 95 41.3122 95 56.5Z" fill="white"/>
<path fill-rule="evenodd" clip-rule="evenodd" d="M123.991 57.0034L123.491 56.9946C123.497 56.6638 123.5 56.3322 123.5 56C123.5 55.6678 123.497 55.3362 123.491 55.0054L123.991 54.9966C123.997 55.3304 124 55.6648 124 56C124 56.3352 123.997 56.6696 123.991 57.0034ZM123.921 53.0016L123.422 53.0279C123.387 52.3651 123.34 51.7054 123.282 51.049L123.78 51.005C123.839 51.6673 123.886 52.3329 123.921 53.0016ZM123.569 49.0164L123.073 49.0781C122.991 48.4212 122.898 47.7677 122.793 47.1181L123.287 47.0387C123.392 47.6942 123.486 48.3535 123.569 49.0164ZM122.934 45.0709L122.444 45.168C122.315 44.5179 122.175 43.872 122.024 43.2304L122.511 43.1158C122.663 43.7632 122.804 44.415 122.934 45.0709ZM122.018 41.1787L121.535 41.3107C121.361 40.6728 121.175 40.0394 120.978 39.4109L121.456 39.2616C121.654 39.8958 121.841 40.535 122.018 41.1787ZM120.824 37.3634L120.353 37.5298C120.132 36.9057 119.901 36.2868 119.66 35.6732L120.125 35.49C120.369 36.1092 120.602 36.7337 120.824 37.3634ZM119.359 33.6437L118.901 33.8435C118.637 33.2374 118.362 32.6369 118.077 32.0423L118.528 31.8262C118.816 32.4262 119.093 33.0321 119.359 33.6437ZM117.631 30.0384L117.189 30.2705C116.882 29.6849 116.564 29.1054 116.237 28.5323L116.672 28.2845C117.002 28.8627 117.322 29.4474 117.631 30.0384ZM115.65 26.5663C115.299 25.9992 114.938 25.4389 114.568 24.8855L114.152 25.1637C114.519 25.7121 114.877 26.2675 115.225 26.8295L115.65 26.5663ZM99.1145 9.43233L98.8363 9.84782C98.2879 9.48064 97.7325 9.12298 97.1705 8.77508L97.4337 8.34995C98.0007 8.70098 98.5611 9.06185 99.1145 9.43233ZM95.7155 7.32835L95.4677 7.76262C94.8946 7.43557 94.3151 7.11844 93.7295 6.81147L93.9616 6.36862C94.5525 6.67837 95.1373 6.99835 95.7155 7.32835ZM92.1738 5.47198L91.9577 5.92287C91.3631 5.63787 90.7626 5.36315 90.1565 5.09895L90.3563 4.6406C90.9679 4.9072 91.5738 5.1844 92.1738 5.47198ZM88.51 3.87496L88.3268 4.34019C87.7132 4.09856 87.0942 3.86755 86.4702 3.64739L86.6366 3.17587C87.2663 3.39804 87.8908 3.63114 88.51 3.87496ZM84.7384 2.54438L84.5891 3.02158C83.9606 2.82497 83.3272 2.63923 82.6893 2.4646L82.8213 1.98234C83.465 2.15856 84.1041 2.34598 84.7384 2.54438ZM80.8842 1.48932L80.7696 1.97601C80.128 1.82493 79.482 1.68499 78.832 1.5564L78.9291 1.0659C79.585 1.19566 80.2368 1.33687 80.8842 1.48932ZM76.9613 0.713152L76.8819 1.20681C76.2322 1.10232 75.5788 1.00911 74.9218 0.927384L74.9836 0.431208C75.6465 0.513673 76.3058 0.607723 76.9613 0.713152ZM72.995 0.219729L72.9509 0.717787C72.2945 0.659768 71.6349 0.613174 70.9721 0.578206L70.9984 0.0789004C71.6671 0.11418 72.3327 0.16119 72.995 0.219729ZM69.0034 0.00880812L68.9946 0.508731C68.6638 0.502918 68.3322 0.5 68 0.5C67.6678 0.5 67.3362 0.502919 67.0054 0.508731L66.9966 0.00880849C67.3304 0.00294432 67.6648 0 68 0C68.3352 0 68.6696 0.00294419 69.0034 0.00880812ZM65.0016 0.0789014L65.0279 0.578207C64.3651 0.613175 63.7054 0.65977 63.049 0.717789L63.005 0.219731C63.6673 0.161192 64.3329 0.114181 65.0016 0.0789014ZM61.0164 0.431211L61.0781 0.927387C60.4212 1.00912 59.7677 1.10233 59.1181 1.20681L59.0387 0.713156C59.6942 0.607727 60.3535 0.513676 61.0164 0.431211ZM57.0709 1.06591L57.168 1.5564C56.5179 1.68499 55.872 1.82494 55.2304 1.97602L55.1158 1.48933C55.7632 1.33688 56.415 1.19566 57.0709 1.06591ZM53.1787 1.98234L53.3107 2.4646C52.6728 2.63924 52.0394 2.82497 51.4109 3.02159L51.2616 2.54439C51.8958 2.34599 52.535 2.15857 53.1787 1.98234ZM49.3634 3.17588L49.5298 3.64739C48.9057 3.86756 48.2868 4.09857 47.6732 4.34019L47.49 3.87497C48.1092 3.63115 48.7337 3.39804 49.3634 3.17588ZM45.6437 4.64061L45.8435 5.09895C45.2374 5.36316 44.6369 5.63788 44.0423 5.92287L43.8262 5.47199C44.4262 5.18441 45.0321 4.90721 45.6437 4.64061ZM42.0384 6.36863L42.2705 6.81148C41.6849 7.11845 41.1054 7.43558 40.5323 7.76263L40.2845 7.32836C40.8627 6.99836 41.4474 6.67838 42.0384 6.36863ZM38.5663 8.34995L38.8295 8.77509C38.2675 9.12299 37.7121 9.48065 37.1637 9.84783L36.8855 9.43234C37.4389 9.06186 37.9992 8.70099 38.5663 8.34995ZM35.244 10.5742L35.5368 10.9795C35.0011 11.3665 34.4725 11.7628 33.9514 12.1682L33.6444 11.7735C34.1702 11.3645 34.7035 10.9646 35.244 10.5742ZM32.0886 13.0288L32.4094 13.4123C31.9026 13.8363 31.4035 14.2691 30.9124 14.7106L30.5781 14.3388C31.0737 13.8933 31.5773 13.4566 32.0886 13.0288ZM29.1151 15.7015L29.4623 16.0612C28.9871 16.5199 28.5199 16.9871 28.0612 17.4624L27.7014 17.1151C28.1643 16.6356 28.6356 16.1643 29.1151 15.7015ZM26.3387 18.5781L26.7106 18.9124C26.2691 19.4036 25.8363 19.9026 25.4123 20.4094L25.0288 20.0886C25.4566 19.5773 25.8933 19.0737 26.3387 18.5781ZM23.7735 21.6444L24.1681 21.9514C23.7628 22.4725 23.3665 23.0011 22.9795 23.5368L22.5742 23.244C22.9646 22.7035 23.3645 22.1702 23.7735 21.6444ZM21.4323 24.8855L21.8478 25.1637C21.4806 25.7121 21.123 26.2675 20.7751 26.8295L20.3499 26.5663C20.701 25.9993 21.0619 25.4389 21.4323 24.8855ZM19.3284 28.2845L19.7626 28.5323C19.4356 29.1054 19.1184 29.6849 18.8115 30.2705L18.3686 30.0384C18.6784 29.4475 18.9984 28.8627 19.3284 28.2845ZM17.472 31.8262L17.9229 32.0423C17.6379 32.6369 17.3632 33.2374 17.0989 33.8435L16.6406 33.6437C16.9072 33.0321 17.1844 32.4262 17.472 31.8262ZM12.0789 58.9984L12.5782 58.9721C12.6132 59.6349 12.6598 60.2946 12.7178 60.951L12.2197 60.995C12.1612 60.3327 12.1142 59.6671 12.0789 58.9984ZM12.4312 62.9836L12.9274 62.9219C13.0091 63.5788 13.1023 64.2323 13.2068 64.8819L12.7132 64.9613C12.6077 64.3058 12.5137 63.6465 12.4312 62.9836ZM13.0659 66.9291L13.5564 66.832C13.685 67.4821 13.8249 68.128 13.976 68.7696L13.4893 68.8842C13.3369 68.2368 13.1957 67.585 13.0659 66.9291ZM13.9823 70.8213L14.4646 70.6893C14.6392 71.3272 14.825 71.9606 15.0216 72.5891L14.5444 72.7384C14.346 72.1042 14.1586 71.465 13.9823 70.8213ZM15.1759 74.6366C15.398 75.2663 15.6311 75.8908 15.875 76.51L16.3402 76.3268C16.0986 75.7132 15.8676 75.0943 15.6474 74.4702L15.1759 74.6366ZM16.6406 78.3563L17.099 78.1565C17.3632 78.7626 17.6379 79.3631 17.9229 79.9577L17.472 80.1738C17.1844 79.5738 16.9072 78.9679 16.6406 78.3563ZM18.3686 81.9616L18.8115 81.7295C19.1185 82.3151 19.4356 82.8946 19.7626 83.4677L19.3284 83.7155C18.9984 83.1373 18.6784 82.5526 18.3686 81.9616ZM20.35 85.4337L20.7751 85.1705C21.123 85.7325 21.4806 86.2879 21.8478 86.8363L21.4323 87.1145C21.0619 86.5611 20.701 86.0008 20.35 85.4337ZM22.5742 88.756L22.9795 88.4632C23.3665 88.9989 23.7628 89.5275 24.1682 90.0486L23.7735 90.3556C23.3645 89.8298 22.9646 89.2965 22.5742 88.756ZM25.0288 91.9114L25.4123 91.5906C25.8363 92.0974 26.2691 92.5965 26.7106 93.0876L26.3388 93.4219C25.8933 92.9263 25.4566 92.4227 25.0288 91.9114ZM27.7015 94.8849L28.0612 94.5377C28.5199 95.0129 28.9871 95.4801 29.4624 95.9388L29.1151 96.2986C28.6356 95.8357 28.1643 95.3644 27.7015 94.8849ZM30.5781 97.6613L30.9124 97.2894C31.4036 97.7309 31.9026 98.1637 32.4094 98.5877L32.0886 98.9712C31.5773 98.5434 31.0737 98.1067 30.5781 97.6613ZM33.6444 100.227L33.9514 99.8319C34.4725 100.237 35.0011 100.634 35.5368 101.021L35.244 101.426C34.7035 101.035 34.1702 100.636 33.6444 100.227ZM36.8855 102.568L37.1637 102.152C37.7121 102.519 38.2675 102.877 38.8295 103.225L38.5663 103.65C37.9993 103.299 37.4389 102.938 36.8855 102.568ZM40.2845 104.672L40.5323 104.237C41.1054 104.564 41.6849 104.882 42.2705 105.189L42.0384 105.631C41.4475 105.322 40.8627 105.002 40.2845 104.672ZM43.8262 106.528L44.0423 106.077C44.6369 106.362 45.2374 106.637 45.8435 106.901L45.6437 107.359C45.0321 107.093 44.4262 106.816 43.8262 106.528ZM47.49 108.125L47.6732 107.66C48.2868 107.901 48.9058 108.132 49.5298 108.353L49.3634 108.824C48.7337 108.602 48.1092 108.369 47.49 108.125ZM51.2616 109.456L51.4109 108.978C52.0394 109.175 52.6728 109.361 53.3107 109.535L53.1787 110.018C52.535 109.841 51.8959 109.654 51.2616 109.456ZM55.1158 110.511L55.2304 110.024C55.872 110.175 56.518 110.315 57.168 110.444L57.0709 110.934C56.415 110.804 55.7632 110.663 55.1158 110.511ZM59.0387 111.287L59.1181 110.793C59.7677 110.898 60.4212 110.991 61.0782 111.073L61.0164 111.569C60.3535 111.486 59.6942 111.392 59.0387 111.287ZM63.005 111.78L63.0491 111.282C63.7054 111.34 64.3651 111.387 65.0279 111.422L65.0016 111.921C64.3329 111.886 63.6673 111.839 63.005 111.78ZM66.9966 111.991L67.0054 111.491C67.3362 111.497 67.6678 111.5 68 111.5C68.3322 111.5 68.6638 111.497 68.9946 111.491L69.0034 111.991C68.6696 111.997 68.3352 112 68 112C67.6648 112 67.3304 111.997 66.9966 111.991ZM70.9984 111.921L70.9721 111.422C71.6349 111.387 72.2946 111.34 72.951 111.282L72.995 111.78C72.3327 111.839 71.6671 111.886 70.9984 111.921ZM74.9836 111.569L74.9219 111.073C75.5789 110.991 76.2323 110.898 76.8819 110.793L76.9613 111.287C76.3058 111.392 75.6465 111.486 74.9836 111.569ZM78.9291 110.934L78.832 110.444C79.4821 110.315 80.128 110.175 80.7696 110.024L80.8842 110.511C80.2368 110.663 79.585 110.804 78.9291 110.934ZM82.8213 110.018L82.6893 109.535C83.3272 109.361 83.9606 109.175 84.5891 108.978L84.7384 109.456C84.1042 109.654 83.465 109.841 82.8213 110.018ZM86.6366 108.824L86.4702 108.353C87.0943 108.132 87.7132 107.901 88.3268 107.66L88.51 108.125C87.8908 108.369 87.2663 108.602 86.6366 108.824ZM90.3563 107.359L90.1565 106.901C90.7626 106.637 91.3631 106.362 91.9577 106.077L92.1738 106.528C91.5738 106.816 90.9679 107.093 90.3563 107.359ZM93.9616 105.631L93.7295 105.189C94.3151 104.882 94.8946 104.564 95.4677 104.237L95.7155 104.672C95.1373 105.002 94.5526 105.322 93.9616 105.631ZM97.4337 103.65C98.0008 103.299 98.5611 102.938 99.1145 102.568L98.8363 102.152C98.2879 102.519 97.7325 102.877 97.1705 103.225L97.4337 103.65ZM100.756 101.426L100.463 101.021C100.999 100.634 101.527 100.237 102.049 99.8318L102.356 100.226C101.83 100.636 101.297 101.035 100.756 101.426ZM116.672 83.7155C117.002 83.1373 117.322 82.5525 117.631 81.9616L117.189 81.7295C116.882 82.3151 116.564 82.8946 116.237 83.4677L116.672 83.7155ZM118.528 80.1738L118.077 79.9577C118.362 79.3631 118.637 78.7626 118.901 78.1565L119.359 78.3563C119.093 78.9679 118.816 79.5738 118.528 80.1738ZM120.125 76.51L119.66 76.3268C119.901 75.7132 120.132 75.0942 120.353 74.4702L120.824 74.6366C120.602 75.2663 120.369 75.8908 120.125 76.51ZM121.456 72.7384L120.978 72.5891C121.175 71.9606 121.361 71.3272 121.535 70.6893L122.018 70.8213C121.841 71.465 121.654 72.1041 121.456 72.7384ZM122.511 68.8842L122.024 68.7696C122.175 68.128 122.315 67.482 122.444 66.832L122.934 66.9291C122.804 67.585 122.663 68.2368 122.511 68.8842ZM123.287 64.9613L122.793 64.8819C122.898 64.2322 122.991 63.5788 123.073 62.9218L123.569 62.9836C123.486 63.6465 123.392 64.3058 123.287 64.9613ZM123.78 60.995L123.282 60.9509C123.34 60.2946 123.387 59.6349 123.422 58.9721L123.921 58.9984C123.886 59.6671 123.839 60.3327 123.78 60.995Z" fill="white"/>
<path d="M79.2415 63.0436H68.0216L70.844 65.866L67.708 69.002L57 58.3984H79.2415V63.0436Z" fill="white"/>
<path d="M79.4134 54.6035H57.1719V49.9584H68.3917L65.5693 47.136L68.7053 44L79.4134 54.6035Z" fill="white"/>
<path d="M119.31 15.155C119.31 21.8681 113.868 27.3101 107.155 27.3101C100.442 27.3101 95 21.8681 95 15.155C95 8.442 100.442 3 107.155 3C113.868 3 119.31 8.442 119.31 15.155Z" fill="white"/>
<path d="M24.3101 44.155C24.3101 50.8681 18.8681 56.3101 12.155 56.3101C5.442 56.3101 0 50.8681 0 44.155C0 37.442 5.442 32 12.155 32C18.8681 32 24.3101 37.442 24.3101 44.155Z" fill="white"/>
<path d="M124.31 92.155C124.31 98.8681 118.868 104.31 112.155 104.31C105.442 104.31 100 98.8681 100 92.155C100 85.442 105.442 80 112.155 80C118.868 80 124.31 85.442 124.31 92.155Z" fill="white"/>
</svg>
