<svg width="90" height="67" viewBox="0 0 90 67" fill="none" xmlns="http://www.w3.org/2000/svg">
<path d="M0.000194617 66.1049L0.0451947 60.0749L29.3402 33.6149C31.8602 31.3349 33.5252 29.1749 34.3352 27.1349C35.1752 25.0649 35.5952 22.9049 35.5952 20.6549C35.5952 17.9849 34.9652 15.5699 33.7052 13.4099C32.4452 11.2499 30.7502 9.5399 28.6202 8.2799C26.4902 6.9899 24.1052 6.3449 21.4652 6.3449C18.7052 6.3449 16.2452 7.0049 14.0852 8.3249C11.9252 9.6449 10.2152 11.3849 8.9552 13.5449C7.7252 15.7049 7.1252 18.0599 7.15519 20.6099H0.405195C0.405195 16.6799 1.33519 13.1549 3.19519 10.0349C5.05519 6.9149 7.5752 4.4699 10.7552 2.6999C13.9352 0.8999 17.5352 -9.89437e-05 21.5552 -9.89437e-05C25.4852 -9.89437e-05 29.0102 0.9299 32.1302 2.7899C35.2802 4.6199 37.7552 7.1099 39.5552 10.2599C41.3852 13.3799 42.3002 16.8599 42.3002 20.6999C42.3002 23.3999 41.9702 25.7849 41.3102 27.8549C40.6802 29.8949 39.6752 31.7999 38.2952 33.5699C36.9452 35.3099 35.2202 37.1099 33.1202 38.9699L7.1102 62.4599L6.0752 59.7599H42.3002V66.1049H0.000194617ZM44.1283 66.1499L63.1183 41.5799L44.5333 17.5499H52.4533L66.9883 36.4949L81.3883 17.5499H89.3083L70.7233 41.5799L89.7583 66.1499H81.7933L66.9883 46.6649L52.0933 66.1499H44.1283Z" fill="white"/>
</svg>
