<svg width="20" height="20" viewBox="0 0 20 20" fill="none" xmlns="http://www.w3.org/2000/svg">
<path d="M5.83333 17.5C3.99238 17.5 2.5 16.0076 2.5 14.1667V4.16667C2.5 3.24619 3.24619 2.5 4.16667 2.5H7.5C8.42047 2.5 9.16667 3.24619 9.16667 4.16667V14.1667C9.16667 16.0076 7.67428 17.5 5.83333 17.5V17.5M5.83333 17.5H15.8333C16.7538 17.5 17.5 16.7538 17.5 15.8333V12.5C17.5 11.5795 16.7538 10.8333 15.8333 10.8333H13.8808M9.16667 6.11917L10.1433 5.1425C10.9802 4.27598 12.2196 3.92846 13.385 4.23351C14.5505 4.53856 15.4606 5.44871 15.7657 6.61414C16.0707 7.77957 15.7232 9.01892 14.8567 9.85583L8.33333 14.7142" stroke="white" stroke-opacity="0.9" stroke-width="1.25" stroke-linecap="round" stroke-linejoin="round"/>
</svg>
