<svg width="17" height="18" viewBox="0 0 17 18" fill="none" xmlns="http://www.w3.org/2000/svg">
<path d="M0.625 3.95833L3.125 0.625H13.125L15.625 3.95833M0.625 3.95833V15.625C0.625 16.067 0.800595 16.4909 1.11316 16.8035C1.42572 17.1161 1.84964 17.2917 2.29167 17.2917H13.9583C14.4004 17.2917 14.8243 17.1161 15.1368 16.8035C15.4494 16.4909 15.625 16.067 15.625 15.625V3.95833M0.625 3.95833H15.625M11.4583 7.29167C11.4583 8.17572 11.1071 9.02357 10.482 9.64869C9.8569 10.2738 9.00905 10.625 8.125 10.625C7.24094 10.625 6.3931 10.2738 5.76798 9.64869C5.14286 9.02357 4.79167 8.17572 4.79167 7.29167" stroke="#FFF4F4" stroke-width="1.25" stroke-linecap="round" stroke-linejoin="round"/>
</svg>
