<svg width="24" height="24" viewBox="0 0 24 24" fill="none" xmlns="http://www.w3.org/2000/svg"><g transform="translate(-1.3333 -0.6667) scale(1.3333)"><g id="Conten 2 1">
<path id="Vector" d="M4.16667 17H15.8333C16.7538 17 17.5 16.2538 17.5 15.3333V3.66667C17.5 2.74619 16.7538 2 15.8333 2H4.16667C3.24619 2 2.5 2.74619 2.5 3.66667V15.3333C2.5 16.2538 3.24619 17 4.16667 17ZM4.16667 17L13.3333 7.83333L17.5 12M8.33333 6.58333C8.33333 7.27369 7.77369 7.83333 7.08333 7.83333C6.39298 7.83333 5.83333 7.27369 5.83333 6.58333C5.83333 5.89298 6.39298 5.33333 7.08333 5.33333C7.77369 5.33333 8.33333 5.89298 8.33333 6.58333Z" stroke="white" stroke-width="1.125" stroke-linecap="round" stroke-linejoin="round"/>
</g></g></svg>
