<svg width="30" height="26" viewBox="0 0 30 26" fill="none" xmlns="http://www.w3.org/2000/svg">
<path d="M26.3467 2.7741C25.6657 2.09277 24.8571 1.5523 23.9672 1.18355C23.0772 0.814796 22.1234 0.625 21.1601 0.625C20.1967 0.625 19.2429 0.814796 18.3529 1.18355C17.463 1.5523 16.6544 2.09277 15.9734 2.7741L14.5601 4.18743L13.1467 2.7741C11.7711 1.39851 9.90543 0.625713 7.96005 0.625713C6.01468 0.625713 4.14898 1.39851 2.77339 2.7741C1.3978 4.14969 0.625 6.01539 0.625 7.96077C0.625 9.90614 1.3978 11.7718 2.77339 13.1474L14.5601 24.9341L26.3467 13.1474C27.028 12.4664 27.5685 11.6579 27.9373 10.7679C28.306 9.87796 28.4958 8.92408 28.4958 7.96077C28.4958 6.99745 28.306 6.04357 27.9373 5.15363C27.5685 4.26368 27.028 3.45511 26.3467 2.7741Z" stroke="white" stroke-width="1.25" stroke-linecap="round" stroke-linejoin="round"/>
</svg>
