<svg width="18" height="18" viewBox="0 0 18 18" fill="none" xmlns="http://www.w3.org/2000/svg">
<path d="M3.95833 3.95833H3.96667M3.95833 13.9583H3.96667M2.29167 0.625H15.625C16.5455 0.625 17.2917 1.37119 17.2917 2.29167V5.625C17.2917 6.54547 16.5455 7.29167 15.625 7.29167H2.29167C1.37119 7.29167 0.625 6.54547 0.625 5.625V2.29167C0.625 1.37119 1.37119 0.625 2.29167 0.625ZM2.29167 10.625H15.625C16.5455 10.625 17.2917 11.3712 17.2917 12.2917V15.625C17.2917 16.5455 16.5455 17.2917 15.625 17.2917H2.29167C1.37119 17.2917 0.625 16.5455 0.625 15.625V12.2917C0.625 11.3712 1.37119 10.625 2.29167 10.625Z" stroke="white" stroke-width="1.25" stroke-linecap="round" stroke-linejoin="round"/>
</svg>
