<svg width="13" height="14" viewBox="0 0 13 14" fill="none" xmlns="http://www.w3.org/2000/svg">
<path d="M7.33125 12.5C7.22137 12.6894 7.06365 12.8467 6.87389 12.956C6.68413 13.0653 6.46899 13.1228 6.25 13.1228C6.03101 13.1228 5.81587 13.0653 5.62611 12.956C5.43635 12.8467 5.27863 12.6894 5.16875 12.5M10 4.375C10 3.38044 9.60491 2.42661 8.90165 1.72335C8.19839 1.02009 7.24456 0.625 6.25 0.625C5.25544 0.625 4.30161 1.02009 3.59835 1.72335C2.89509 2.42661 2.5 3.38044 2.5 4.375C2.5 8.75 0.625 10 0.625 10H11.875C11.875 10 10 8.75 10 4.375Z" stroke="white" stroke-width="1.25" stroke-linecap="round" stroke-linejoin="round"/>
</svg>
