<svg width="18" height="17" viewBox="0 0 18 17" fill="none" xmlns="http://www.w3.org/2000/svg">
<path d="M12.2917 15.625V2.29167C12.2917 1.84964 12.1161 1.42572 11.8035 1.11316C11.491 0.800595 11.067 0.625 10.625 0.625H7.29167C6.84964 0.625 6.42572 0.800595 6.11316 1.11316C5.80059 1.42572 5.625 1.84964 5.625 2.29167V15.625M2.29167 3.95833H15.625C16.5455 3.95833 17.2917 4.70453 17.2917 5.625V13.9583C17.2917 14.8788 16.5455 15.625 15.625 15.625H2.29167C1.37119 15.625 0.625 14.8788 0.625 13.9583V5.625C0.625 4.70453 1.37119 3.95833 2.29167 3.95833Z" stroke="white" stroke-width="1.25" stroke-linecap="round" stroke-linejoin="round"/>
</svg>
