<svg width="17" height="17" viewBox="0 0 17 17" fill="none" xmlns="http://www.w3.org/2000/svg">
<path d="M8.125 10.1705C9.25467 10.1705 10.1705 9.25467 10.1705 8.125C10.1705 6.99533 9.25467 6.07955 8.125 6.07955C6.99533 6.07955 6.07955 6.99533 6.07955 8.125C6.07955 9.25467 6.99533 10.1705 8.125 10.1705Z" stroke="#F5F5F5" stroke-width="1.25" stroke-linecap="round" stroke-linejoin="round"/>
<path d="M13.1705 10.1705C13.0797 10.3761 13.0526 10.6042 13.0927 10.8254C13.1328 11.0466 13.2383 11.2507 13.3955 11.4114L13.4364 11.4523C13.5632 11.5789 13.6637 11.7293 13.7324 11.8949C13.801 12.0604 13.8363 12.2378 13.8363 12.417C13.8363 12.5962 13.801 12.7737 13.7324 12.9392C13.6637 13.1048 13.5632 13.2552 13.4364 13.3818C13.3097 13.5086 13.1593 13.6092 12.9938 13.6778C12.8282 13.7464 12.6508 13.7818 12.4716 13.7818C12.2924 13.7818 12.1149 13.7464 11.9494 13.6778C11.7839 13.6092 11.6335 13.5086 11.5068 13.3818L11.4659 13.3409C11.3052 13.1837 11.1011 13.0783 10.8799 13.0382C10.6588 12.9981 10.4306 13.0251 10.225 13.1159C10.0233 13.2023 9.85135 13.3458 9.73021 13.5288C9.60907 13.7117 9.54406 13.9261 9.54318 14.1455V14.2614C9.54318 14.623 9.39951 14.9699 9.14378 15.2256C8.88805 15.4813 8.5412 15.625 8.17955 15.625C7.81789 15.625 7.47104 15.4813 7.21531 15.2256C6.95958 14.9699 6.81591 14.623 6.81591 14.2614V14.2C6.81063 13.9743 6.73758 13.7555 6.60626 13.5718C6.47493 13.3882 6.29141 13.2484 6.07955 13.1705C5.8739 13.0797 5.64578 13.0526 5.4246 13.0927C5.20342 13.1328 4.99933 13.2383 4.83864 13.3955L4.79773 13.4364C4.67108 13.5632 4.52069 13.6637 4.35515 13.7324C4.1896 13.801 4.01216 13.8363 3.83295 13.8363C3.65375 13.8363 3.47631 13.801 3.31076 13.7324C3.14522 13.6637 2.99483 13.5632 2.86818 13.4364C2.7414 13.3097 2.64082 13.1593 2.57219 12.9938C2.50357 12.8282 2.46825 12.6508 2.46825 12.4716C2.46825 12.2924 2.50357 12.1149 2.57219 11.9494C2.64082 11.7839 2.7414 11.6335 2.86818 11.5068L2.90909 11.4659C3.06627 11.3052 3.17172 11.1011 3.21182 10.8799C3.25193 10.6588 3.22485 10.4306 3.13409 10.225C3.04766 10.0233 2.90415 9.85135 2.72123 9.73021C2.5383 9.60907 2.32395 9.54406 2.10455 9.54318H1.98864C1.62698 9.54318 1.28013 9.39951 1.0244 9.14378C0.768668 8.88805 0.625 8.5412 0.625 8.17955C0.625 7.81789 0.768668 7.47104 1.0244 7.21531C1.28013 6.95958 1.62698 6.81591 1.98864 6.81591H2.05C2.27568 6.81063 2.49455 6.73758 2.67816 6.60626C2.86177 6.47493 3.00162 6.29141 3.07955 6.07955C3.17031 5.8739 3.19738 5.64578 3.15728 5.4246C3.11717 5.20342 3.01173 4.99933 2.85455 4.83864L2.81364 4.79773C2.68685 4.67108 2.58627 4.52069 2.51765 4.35515C2.44902 4.1896 2.4137 4.01216 2.4137 3.83295C2.4137 3.65375 2.44902 3.47631 2.51765 3.31076C2.58627 3.14522 2.68685 2.99483 2.81364 2.86818C2.94028 2.7414 3.09067 2.64082 3.25622 2.57219C3.42176 2.50357 3.59921 2.46825 3.77841 2.46825C3.95761 2.46825 4.13506 2.50357 4.3006 2.57219C4.46614 2.64082 4.61654 2.7414 4.74318 2.86818L4.78409 2.90909C4.94478 3.06627 5.14887 3.17172 5.37005 3.21182C5.59123 3.25193 5.81935 3.22485 6.025 3.13409H6.07955C6.28121 3.04766 6.45319 2.90415 6.57434 2.72123C6.69548 2.5383 6.76049 2.32395 6.76136 2.10455V1.98864C6.76136 1.62698 6.90503 1.28013 7.16076 1.0244C7.4165 0.768668 7.76334 0.625 8.125 0.625C8.48666 0.625 8.8335 0.768668 9.08924 1.0244C9.34497 1.28013 9.48864 1.62698 9.48864 1.98864V2.05C9.48951 2.2694 9.55452 2.48376 9.67566 2.66668C9.79681 2.84961 9.96879 2.99312 10.1705 3.07955C10.3761 3.17031 10.6042 3.19738 10.8254 3.15728C11.0466 3.11717 11.2507 3.01173 11.4114 2.85455L11.4523 2.81364C11.5789 2.68685 11.7293 2.58627 11.8949 2.51765C12.0604 2.44902 12.2378 2.4137 12.417 2.4137C12.5962 2.4137 12.7737 2.44902 12.9392 2.51765C13.1048 2.58627 13.2552 2.68685 13.3818 2.81364C13.5086 2.94028 13.6092 3.09067 13.6778 3.25622C13.7464 3.42176 13.7818 3.59921 13.7818 3.77841C13.7818 3.95761 13.7464 4.13506 13.6778 4.3006C13.6092 4.46614 13.5086 4.61654 13.3818 4.74318L13.3409 4.78409C13.1837 4.94478 13.0783 5.14887 13.0382 5.37005C12.9981 5.59123 13.0251 5.81935 13.1159 6.025V6.07955C13.2023 6.28121 13.3458 6.45319 13.5288 6.57434C13.7117 6.69548 13.9261 6.76049 14.1455 6.76136H14.2614C14.623 6.76136 14.9699 6.90503 15.2256 7.16076C15.4813 7.4165 15.625 7.76334 15.625 8.125C15.625 8.48666 15.4813 8.8335 15.2256 9.08924C14.9699 9.34497 14.623 9.48864 14.2614 9.48864H14.2C13.9806 9.48951 13.7662 9.55452 13.5833 9.67566C13.4004 9.79681 13.2569 9.96879 13.1705 10.1705Z" stroke="#F5F5F5" stroke-width="1.25" stroke-linecap="round" stroke-linejoin="round"/>
</svg>
