<svg width="20" height="20" viewBox="0 0 20 20" fill="none" xmlns="http://www.w3.org/2000/svg">
<path d="M9.81824 12.2727C11.1738 12.2727 12.2728 11.1738 12.2728 9.81818C12.2728 8.46257 11.1738 7.36363 9.81824 7.36363C8.46263 7.36363 7.36369 8.46257 7.36369 9.81818C7.36369 11.1738 8.46263 12.2727 9.81824 12.2727Z" stroke="#F5F5F5" stroke-width="1.63636" stroke-linecap="round" stroke-linejoin="round"/>
<path d="M15.8728 12.2727C15.7639 12.5195 15.7314 12.7932 15.7795 13.0587C15.8276 13.3241 15.9542 13.569 16.1428 13.7618L16.1919 13.8109C16.344 13.9629 16.4647 14.1433 16.5471 14.342C16.6294 14.5407 16.6718 14.7536 16.6718 14.9686C16.6718 15.1837 16.6294 15.3966 16.5471 15.5953C16.4647 15.7939 16.344 15.9744 16.1919 16.1264C16.0399 16.2785 15.8594 16.3992 15.6608 16.4815C15.4621 16.5639 15.2492 16.6063 15.0341 16.6063C14.8191 16.6063 14.6062 16.5639 14.4075 16.4815C14.2089 16.3992 14.0284 16.2785 13.8764 16.1264L13.8273 16.0773C13.6345 15.8886 13.3896 15.7621 13.1242 15.714C12.8588 15.6659 12.585 15.6984 12.3382 15.8073C12.0962 15.911 11.8899 16.0832 11.7445 16.3027C11.5991 16.5222 11.5211 16.7794 11.5201 17.0427V17.1818C11.5201 17.6158 11.3477 18.032 11.0408 18.3389C10.7339 18.6458 10.3177 18.8182 9.88369 18.8182C9.4497 18.8182 9.03349 18.6458 8.72661 18.3389C8.41973 18.032 8.24733 17.6158 8.24733 17.1818V17.1082C8.24099 16.8374 8.15333 16.5747 7.99575 16.3544C7.83816 16.1341 7.61793 15.9662 7.36369 15.8727C7.11692 15.7638 6.84317 15.7313 6.57776 15.7794C6.31234 15.8276 6.06743 15.9541 5.8746 16.1427L5.82551 16.1918C5.67354 16.344 5.49306 16.4647 5.29441 16.547C5.09576 16.6293 4.88283 16.6717 4.66778 16.6717C4.45274 16.6717 4.2398 16.6293 4.04115 16.547C3.8425 16.4647 3.66203 16.344 3.51006 16.1918C3.35791 16.0398 3.23722 15.8594 3.15487 15.6607C3.07252 15.4621 3.03013 15.2491 3.03013 15.0341C3.03013 14.819 3.07252 14.6061 3.15487 14.4075C3.23722 14.2088 3.35791 14.0283 3.51006 13.8764L3.55915 13.8273C3.74777 13.6344 3.8743 13.3895 3.92242 13.1241C3.97055 12.8587 3.93806 12.585 3.82915 12.3382C3.72543 12.0962 3.55322 11.8898 3.33371 11.7444C3.1142 11.5991 2.85697 11.521 2.59369 11.52H2.4546C2.02061 11.52 1.60439 11.3476 1.29752 11.0407C0.990639 10.7338 0.818237 10.3176 0.818237 9.88363C0.818237 9.44964 0.990639 9.03342 1.29752 8.72655C1.60439 8.41967 2.02061 8.24727 2.4546 8.24727H2.52824C2.79905 8.24093 3.0617 8.15327 3.28203 7.99568C3.50236 7.8381 3.67019 7.61787 3.76369 7.36363C3.8726 7.11685 3.90509 6.84311 3.85697 6.57769C3.80884 6.31228 3.68231 6.06737 3.49369 5.87454L3.4446 5.82545C3.29246 5.67347 3.17176 5.493 3.08941 5.29435C3.00706 5.0957 2.96468 4.88277 2.96468 4.66772C2.96468 4.45268 3.00706 4.23974 3.08941 4.04109C3.17176 3.84244 3.29246 3.66197 3.4446 3.50999C3.59658 3.35785 3.77705 3.23715 3.9757 3.15481C4.17435 3.07246 4.38728 3.03007 4.60233 3.03007C4.81737 3.03007 5.03031 3.07246 5.22896 3.15481C5.42761 3.23715 5.60808 3.35785 5.76006 3.50999L5.80915 3.55909C6.00197 3.74771 6.24689 3.87424 6.5123 3.92236C6.77772 3.97049 7.05146 3.938 7.29824 3.82909H7.36369C7.60568 3.72537 7.81207 3.55316 7.95744 3.33365C8.10281 3.11414 8.18082 2.85691 8.18187 2.59363V2.45454C8.18187 2.02055 8.35428 1.60433 8.66115 1.29746C8.96803 0.990578 9.38425 0.818176 9.81824 0.818176C10.2522 0.818176 10.6684 0.990578 10.9753 1.29746C11.2822 1.60433 11.4546 2.02055 11.4546 2.45454V2.52818C11.4557 2.79146 11.5337 3.04868 11.679 3.26819C11.8244 3.4877 12.0308 3.65992 12.2728 3.76363C12.5196 3.87254 12.7933 3.90503 13.0587 3.85691C13.3241 3.80878 13.569 3.68225 13.7619 3.49363L13.811 3.44454C13.9629 3.2924 14.1434 3.1717 14.3421 3.08935C14.5407 3.007 14.7536 2.96462 14.9687 2.96462C15.1837 2.96462 15.3967 3.007 15.5953 3.08935C15.794 3.1717 15.9744 3.2924 16.1264 3.44454C16.2786 3.59651 16.3993 3.77699 16.4816 3.97564C16.564 4.17429 16.6063 4.38722 16.6063 4.60227C16.6063 4.81731 16.564 5.03025 16.4816 5.2289C16.3993 5.42755 16.2786 5.60802 16.1264 5.75999L16.0773 5.80909C15.8887 6.00191 15.7622 6.24683 15.7141 6.51224C15.6659 6.77765 15.6984 7.0514 15.8073 7.29818V7.36363C15.911 7.60562 16.0833 7.81201 16.3028 7.95738C16.5223 8.10275 16.7795 8.18076 17.0428 8.18181H17.1819C17.6159 8.18181 18.0321 8.35422 18.339 8.66109C18.6458 8.96797 18.8182 9.38419 18.8182 9.81818C18.8182 10.2522 18.6458 10.6684 18.339 10.9753C18.0321 11.2821 17.6159 11.4545 17.1819 11.4545H17.1082C16.845 11.4556 16.5877 11.5336 16.3682 11.679C16.1487 11.8243 15.9765 12.0307 15.8728 12.2727Z" stroke="#F5F5F5" stroke-width="1.63636" stroke-linecap="round" stroke-linejoin="round"/>
</svg>
