<svg width="20" height="20" viewBox="0 0 20 20" fill="none" xmlns="http://www.w3.org/2000/svg">
<path d="M9.99999 18.3334C14.6024 18.3334 18.3333 14.6024 18.3333 10C18.3333 5.39765 14.6024 1.66669 9.99999 1.66669C5.39762 1.66669 1.66666 5.39765 1.66666 10C1.66666 14.6024 5.39762 18.3334 9.99999 18.3334Z" stroke="white" stroke-width="1.25" stroke-linecap="round" stroke-linejoin="round"/>
<path d="M9.99999 15C12.7614 15 15 12.7614 15 10C15 7.2386 12.7614 5.00002 9.99999 5.00002C7.23857 5.00002 4.99999 7.2386 4.99999 10C4.99999 12.7614 7.23857 15 9.99999 15Z" stroke="white" stroke-width="1.25" stroke-linecap="round" stroke-linejoin="round"/>
<path d="M9.99999 11.6667C10.9205 11.6667 11.6667 10.9205 11.6667 10C11.6667 9.07955 10.9205 8.33335 9.99999 8.33335C9.07952 8.33335 8.33332 9.07955 8.33332 10C8.33332 10.9205 9.07952 11.6667 9.99999 11.6667Z" stroke="white" stroke-width="1.25" stroke-linecap="round" stroke-linejoin="round"/>
</svg>
