<svg width="15" height="18" viewBox="0 0 15 18" fill="none" xmlns="http://www.w3.org/2000/svg">
<path d="M10.625 2.29167H12.2917C12.7337 2.29167 13.1576 2.46726 13.4702 2.77982C13.7827 3.09238 13.9583 3.51631 13.9583 3.95833V15.625C13.9583 16.067 13.7827 16.4909 13.4702 16.8035C13.1576 17.1161 12.7337 17.2917 12.2917 17.2917H2.29167C1.84964 17.2917 1.42572 17.1161 1.11316 16.8035C0.800595 16.4909 0.625 16.067 0.625 15.625V3.95833C0.625 3.51631 0.800595 3.09238 1.11316 2.77982C1.42572 2.46726 1.84964 2.29167 2.29167 2.29167H3.95833M4.79167 0.625H9.79167C10.2519 0.625 10.625 0.998096 10.625 1.45833V3.125C10.625 3.58524 10.2519 3.95833 9.79167 3.95833H4.79167C4.33143 3.95833 3.95833 3.58524 3.95833 3.125V1.45833C3.95833 0.998096 4.33143 0.625 4.79167 0.625Z" stroke="white" stroke-width="1.25" stroke-linecap="round" stroke-linejoin="round"/>
</svg>
