<?xml version="1.0" encoding="UTF-8"?>
<svg id="Capa_1" data-name="Capa 1" xmlns="http://www.w3.org/2000/svg" xmlns:xlink="http://www.w3.org/1999/xlink" viewBox="0 0 1014.33 880.4">
  <defs>
    <style>
      .cls-1 {
        fill: url(#Degradado_sin_nombre_263);
      }
    </style>
    <linearGradient id="Degradado_sin_nombre_263" data-name="Degradado sin nombre 263" x1="362.31" y1="599.52" x2="652.02" y2="97.72" gradientUnits="userSpaceOnUse">
      <stop offset="0" stop-color="#ba0000"/>
      <stop offset=".17" stop-color="#ff6500"/>
      <stop offset=".33" stop-color="#ffe500"/>
      <stop offset=".47" stop-color="#00d614"/>
      <stop offset=".6" stop-color="#00e7ff"/>
      <stop offset=".75" stop-color="#0018ee"/>
      <stop offset=".9" stop-color="#640091"/>
    </linearGradient>
  </defs>
  <g>
    <g>
      <path d="M224.49,855.84c.56,5.63,4.39,9.01,13.07,9.01,6.76,0,10.82-2.37,10.82-6.99s-3.94-6.31-12.84-8.56c-12.84-3.27-20.73-7.55-20.73-18.7,0-10.37,8.9-17.58,22.53-17.58,14.87,0,22.42,7.32,22.42,18.03h-11.72c-.45-5.3-4.39-8.11-10.7-8.11-5.63,0-9.69,1.8-9.69,6.53s3.83,6.31,12.51,8.45c13.63,3.38,21.29,8,21.29,18.93s-9.35,17.91-23.88,17.91c-16,0-24.67-7.1-24.78-18.93h11.72Z"/>
      <path d="M280.59,814.38v12.05c2.93-8,9.24-13.41,18.48-13.41,8.34,0,14.98,4.51,16.67,15.1,2.59-9.01,9.13-15.1,19.04-15.1,11.49,0,17.35,8.45,17.35,22.08v38.3h-13.52v-34.59c0-9.46-3.72-14.87-10.93-14.87s-11.27,5.41-11.27,14.87v34.59h-13.52v-34.59c0-9.46-3.72-14.87-10.81-14.87s-11.27,5.41-11.27,14.87v34.59h-13.52v-59.03h13.29Z"/>
      <path d="M396.29,873.42c-1.01-3.27-1.46-6.65-1.58-11.72-2.93,7.44-9.69,13.07-19.27,13.07-8.34,0-16.56-4.96-16.56-16,0-10.14,6.76-16.22,21.97-18.81l13.63-2.25v-2.59c0-8.34-4.06-11.83-11.15-11.83s-10.93,2.37-11.38,11.72h-11.94c.45-15.1,10.37-21.97,24.45-21.97,16.45,0,23.32,8,23.32,21.86v21.74c0,7.44.68,12.73,1.8,16.79h-13.29ZM381.08,864.74c7.66,0,13.63-4.17,13.63-13.18v-5.86l-10.14,1.58c-8.56,1.35-12.28,4.62-12.28,9.8,0,4.73,2.82,7.66,8.79,7.66Z"/>
      <path d="M431.21,814.38v16c2.14-10.81,7.55-16.79,15.21-16.79,2.03,0,3.27.11,4.51.56v12.84h-6.08c-8.45,0-13.41,4.17-13.41,16.22v30.19h-13.52v-59.03h13.29Z"/>
      <path d="M482.02,824.86v-10.48h-12.39v-11.94h-13.52v55.77c0,10.81,5.86,16,16.22,16,4.06,0,7.21-.34,9.69-.79v-10.03h-4.28c-5.75,0-8.11-2.03-8.11-7.77v-30.76h12.39Z"/>
    </g>
    <g>
      <path d="M177.72,813.72l12.51,36.46h-8.63l-2.5-7.92h-13.18l-2.45,7.92h-8.17l12.51-36.46h9.91ZM177.36,836.4l-5-15.88-4.85,15.88h9.86Z"/>
      <path d="M201.57,813.72v36.46h-7.76v-36.46h7.76Z"/>
    </g>
    <g>
      <path d="M529.5,835c-1.58-6.99-5.41-11.27-12.62-11.27-8.22,0-15.1,6.87-15.1,20.17s6.87,20.17,15.1,20.17c7.32,0,11.38-4.28,12.96-11.27h11.83c-1.69,13.18-10.59,21.97-25.46,21.97-15.89,0-28.62-12.17-28.62-30.87s13.07-30.87,28.62-30.87,23.88,8.45,25.12,21.97h-11.83Z"/>
      <path d="M574.45,813.03c16.45,0,29.63,11.94,29.63,30.87s-13.18,30.87-29.63,30.87-29.63-11.94-29.63-30.87,13.18-30.87,29.63-30.87ZM574.45,864.07c8.45,0,15.43-7.1,15.43-20.17s-6.99-20.17-15.43-20.17-15.43,7.1-15.43,20.17,6.99,20.17,15.43,20.17Z"/>
      <path d="M624.24,814.38v12.39c3.04-8.22,9.91-13.74,19.94-13.74,12.17,0,18.81,8.45,18.81,22.08v38.3h-13.52v-34.59c0-9.46-4.51-14.87-12.39-14.87s-12.62,5.41-12.62,14.87v34.59h-13.52v-59.03h13.29Z"/>
      <path d="M687.7,874.21c-10.37,0-16.22-5.18-16.22-16v-55.77h13.52v11.94h12.39v10.48h-12.39v30.76c0,5.75,2.37,7.77,8.11,7.77h4.28v10.03c-2.48.45-5.63.79-9.69.79Z"/>
      <path d="M712.26,845.37c.56,12.62,7.1,19.04,15.89,19.04,7.55,0,12.17-4.84,13.41-10.59h11.6c-1.8,12.39-11.72,20.95-25.46,20.95-16.9,0-29.07-12.17-29.07-30.87s12.28-30.87,28.73-30.87c17.91,0,26.59,13.41,25.69,32.33h-40.78ZM712.94,836.35h27.49c-1.24-10.14-6.76-13.74-12.96-13.74-7.55,0-12.73,4.73-14.53,13.74Z"/>
      <path d="M773.43,814.38v12.39c3.04-8.22,9.91-13.74,19.94-13.74,12.17,0,18.81,8.45,18.81,22.08v38.3h-13.52v-34.59c0-9.46-4.51-14.87-12.39-14.87s-12.62,5.41-12.62,14.87v34.59h-13.52v-59.03h13.29Z"/>
      <path d="M836.89,874.21c-10.37,0-16.22-5.18-16.22-16v-55.77h13.52v11.94h12.39v10.48h-12.39v30.76c0,5.75,2.37,7.77,8.11,7.77h4.28v10.03c-2.48.45-5.63.79-9.69.79Z"/>
    </g>
  </g>
  <path d="M164.17,5.63v685.98h685.98V5.63H164.17ZM507.16,593.29h0c-135.12,0-244.66-109.54-244.66-244.66h0c0-135.13,109.54-244.67,244.66-244.67h0c135.12,0,244.66,109.54,244.66,244.66h0c0,135.13-109.54,244.67-244.66,244.67Z"/>
  <rect class="cls-1" x="2.79" y="305.29" width="1008.75" height="86.66"/>
</svg>