<?xml version="1.0" encoding="UTF-8"?>
<svg id="Capa_1" data-name="Capa 1" xmlns="http://www.w3.org/2000/svg" xmlns:xlink="http://www.w3.org/1999/xlink" viewBox="0 0 1014.33 880.4">
  <defs>
    <style>
      .cls-1 {
        fill: #fff;
      }

      .cls-2 {
        fill: url(#Degradado_sin_nombre_263);
      }
    </style>
    <linearGradient id="Degradado_sin_nombre_263" data-name="Degradado sin nombre 263" x1="363.03" y1="598.72" x2="651.29" y2="99.44" gradientUnits="userSpaceOnUse">
      <stop offset="0" stop-color="#ba0000"/>
      <stop offset=".17" stop-color="#ff6500"/>
      <stop offset=".33" stop-color="#ffe500"/>
      <stop offset=".47" stop-color="#00d614"/>
      <stop offset=".6" stop-color="#00e7ff"/>
      <stop offset=".75" stop-color="#0018ee"/>
      <stop offset=".9" stop-color="#640091"/>
    </linearGradient>
  </defs>
  <g>
    <g>
      <path class="cls-1" d="M225.91,853.75c.56,5.6,4.37,8.97,13,8.97,6.73,0,10.76-2.35,10.76-6.95s-3.92-6.28-12.78-8.52c-12.78-3.25-20.63-7.51-20.63-18.61,0-10.31,8.86-17.49,22.42-17.49,14.8,0,22.31,7.29,22.31,17.94h-11.66c-.45-5.27-4.37-8.07-10.65-8.07-5.6,0-9.64,1.79-9.64,6.5s3.81,6.28,12.44,8.41c13.56,3.36,21.19,7.96,21.19,18.83s-9.3,17.82-23.76,17.82c-15.92,0-24.55-7.06-24.66-18.83h11.66Z"/>
      <path class="cls-1" d="M281.73,812.5v11.99c2.91-7.96,9.19-13.34,18.38-13.34,8.29,0,14.91,4.48,16.59,15.02,2.58-8.97,9.08-15.02,18.94-15.02,11.43,0,17.26,8.41,17.26,21.97v38.11h-13.45v-34.41c0-9.42-3.7-14.8-10.87-14.8s-11.21,5.38-11.21,14.8v34.41h-13.45v-34.41c0-9.42-3.7-14.8-10.76-14.8s-11.21,5.38-11.21,14.8v34.41h-13.45v-58.74h13.23Z"/>
      <path class="cls-1" d="M396.85,871.24c-1.01-3.25-1.46-6.61-1.57-11.66-2.92,7.4-9.64,13-19.17,13-8.29,0-16.48-4.93-16.48-15.92,0-10.09,6.73-16.14,21.86-18.72l13.56-2.24v-2.58c0-8.29-4.03-11.77-11.1-11.77s-10.87,2.35-11.32,11.66h-11.88c.45-15.02,10.31-21.86,24.32-21.86,16.37,0,23.2,7.96,23.2,21.75v21.63c0,7.4.67,12.67,1.79,16.7h-13.23ZM381.71,862.61c7.62,0,13.56-4.15,13.56-13.11v-5.83l-10.09,1.57c-8.52,1.34-12.22,4.6-12.22,9.75,0,4.71,2.8,7.62,8.74,7.62Z"/>
      <path class="cls-1" d="M431.59,812.5v15.92c2.13-10.76,7.51-16.7,15.13-16.7,2.02,0,3.25.11,4.48.56v12.78h-6.05c-8.41,0-13.34,4.15-13.34,16.14v30.04h-13.45v-58.74h13.23Z"/>
      <path class="cls-1" d="M482.14,822.93v-10.42h-12.33v-11.88h-13.45v55.49c0,10.76,5.83,15.92,16.14,15.92,4.03,0,7.17-.34,9.64-.78v-9.98h-4.26c-5.72,0-8.07-2.02-8.07-7.73v-30.6h12.33Z"/>
    </g>
    <g>
      <path class="cls-1" d="M179.38,811.85l12.45,36.28h-8.59l-2.49-7.88h-13.11l-2.44,7.88h-8.13l12.45-36.28h9.86ZM179.02,834.41l-4.98-15.8-4.83,15.8h9.81Z"/>
      <path class="cls-1" d="M203.11,811.85v36.28h-7.72v-36.28h7.72Z"/>
    </g>
    <g>
      <path class="cls-1" d="M529.39,833.02c-1.57-6.95-5.38-11.21-12.55-11.21-8.18,0-15.02,6.84-15.02,20.07s6.84,20.06,15.02,20.06c7.29,0,11.32-4.26,12.89-11.21h11.77c-1.68,13.12-10.54,21.86-25.33,21.86-15.81,0-28.47-12.11-28.47-30.71s13-30.71,28.47-30.71,23.76,8.41,25,21.86h-11.77Z"/>
      <path class="cls-1" d="M574.11,811.16c16.37,0,29.48,11.88,29.48,30.71s-13.11,30.71-29.48,30.71-29.48-11.88-29.48-30.71,13.12-30.71,29.48-30.71ZM574.11,861.94c8.41,0,15.36-7.06,15.36-20.06s-6.95-20.07-15.36-20.07-15.36,7.06-15.36,20.07,6.95,20.06,15.36,20.06Z"/>
      <path class="cls-1" d="M623.65,812.5v12.33c3.03-8.18,9.86-13.68,19.84-13.68,12.11,0,18.72,8.41,18.72,21.97v38.11h-13.45v-34.41c0-9.42-4.48-14.8-12.33-14.8s-12.55,5.38-12.55,14.8v34.41h-13.45v-58.74h13.23Z"/>
      <path class="cls-1" d="M686.8,872.02c-10.31,0-16.14-5.16-16.14-15.92v-55.49h13.45v11.88h12.33v10.42h-12.33v30.6c0,5.72,2.35,7.73,8.07,7.73h4.26v9.98c-2.47.45-5.6.78-9.64.78Z"/>
      <path class="cls-1" d="M711.23,843.33c.56,12.55,7.06,18.94,15.81,18.94,7.51,0,12.11-4.82,13.34-10.54h11.55c-1.79,12.33-11.66,20.85-25.33,20.85-16.81,0-28.92-12.11-28.92-30.71s12.22-30.71,28.58-30.71c17.82,0,26.45,13.34,25.56,32.17h-40.58ZM711.9,834.36h27.35c-1.23-10.09-6.73-13.68-12.89-13.68-7.51,0-12.67,4.71-14.46,13.68Z"/>
      <path class="cls-1" d="M772.09,812.5v12.33c3.03-8.18,9.86-13.68,19.84-13.68,12.11,0,18.72,8.41,18.72,21.97v38.11h-13.45v-34.41c0-9.42-4.48-14.8-12.33-14.8s-12.55,5.38-12.55,14.8v34.41h-13.45v-58.74h13.23Z"/>
      <path class="cls-1" d="M835.24,872.02c-10.31,0-16.14-5.16-16.14-15.92v-55.49h13.45v11.88h12.33v10.42h-12.33v30.6c0,5.72,2.35,7.73,8.07,7.73h4.26v9.98c-2.47.45-5.6.78-9.64.78Z"/>
    </g>
  </g>
  <path class="cls-1" d="M165.9,7.81v682.53h682.53V7.81H165.9ZM507.16,592.52h0c-134.44,0-243.43-108.99-243.43-243.43h0c0-134.45,108.99-243.44,243.43-243.44h0c134.44,0,243.43,108.99,243.43,243.43h0c0,134.45-108.99,243.44-243.43,243.44Z"/>
  <rect class="cls-2" x="5.32" y="305.97" width="1003.68" height="86.23"/>
</svg>