<svg width="53" height="20" viewBox="0 0 53 20" fill="none" xmlns="http://www.w3.org/2000/svg">
<g clip-path="url(#clip0_594_500)">
<path d="M24.0121 17.4666C21.8319 17.4666 20.2105 15.8968 20.0708 12.8116H30.1901C30.4132 8.18439 28.2611 4.90717 23.8173 4.90717C19.7362 4.90717 16.6895 7.88131 16.6895 12.4542C16.6895 17.027 19.708 20.0012 23.9018 20.0012C27.3125 20.0012 29.7722 17.9085 30.2195 14.8788H27.3406C27.033 16.2832 25.8871 17.4678 24.0145 17.4678L24.0121 17.4666ZM23.8443 7.24738C25.3823 7.24738 26.7513 8.12887 27.0589 10.6079H20.2387C20.686 8.40419 21.9716 7.24738 23.8443 7.24738Z" fill="white"/>
<path d="M35.2492 9.14802V5.23686H31.9512V19.6692H35.3056V12.2876C35.3056 9.34005 36.536 8.32206 38.6317 8.32206H40.1416V5.18249C39.834 5.07259 39.5264 5.04483 39.0238 5.04483C37.123 5.04483 35.7811 6.50472 35.2504 9.14917L35.2492 9.14802Z" fill="white"/>
<path d="M52.5527 15.566V10.2504C52.5527 6.86217 50.8479 4.90717 46.7669 4.90717C43.2728 4.90717 40.8131 6.58685 40.7004 10.2782H43.6638C43.7753 7.99236 44.8097 7.41396 46.4874 7.41396C48.2485 7.41396 49.2547 8.26768 49.2547 10.306V10.9399L45.8722 11.4905C42.0987 12.1245 40.421 13.611 40.421 16.09C40.421 18.7888 42.4615 20.0012 44.5302 20.0012C46.9066 20.0012 48.5831 18.6246 49.3099 16.8061C49.3381 18.045 49.4496 18.8721 49.7009 19.6703H52.9988C52.7194 18.6789 52.5515 17.3845 52.5515 15.566H52.5527ZM49.3099 14.3259C49.3099 16.5296 47.8282 17.5487 45.9274 17.5487C44.4457 17.5487 43.7471 16.8327 43.7471 15.6759C43.7471 14.4092 44.67 13.6098 46.7939 13.2801L49.3099 12.8949V14.327V14.3259Z" fill="white"/>
<path d="M55.5112 3.52907V0L24.2635 0.00368892C19.2121 0.00368892 14.735 3.22904 13.1732 7.99021L10.0123 17.6281L4.19423 0.00491856H0L7.47295 20.9088H12.2874L16.6219 8.78332C17.747 5.63421 20.7516 3.5303 24.1221 3.5303H55.5112V3.52907Z" fill="url(#paint0_linear_594_500)"/>
</g>
<defs>
<linearGradient id="paint0_linear_594_500" x1="4.18183" y1="15.2574" x2="49.1434" y2="-10.9305" gradientUnits="userSpaceOnUse">
<stop offset="0.2" stop-color="white"/>
<stop offset="0.39" stop-color="#E20616"/>
<stop offset="0.49" stop-color="#FFE500"/>
<stop offset="0.64" stop-color="#FFF077"/>
<stop offset="0.76" stop-color="#15B8DC"/>
<stop offset="0.91" stop-color="#266DB4"/>
<stop offset="1" stop-color="#243F91"/>
</linearGradient>
<clipPath id="clip0_594_500">
<rect width="53" height="20" fill="white"/>
</clipPath>
</defs>
</svg>
