<svg width="60" height="23" viewBox="0 0 60 23" fill="none" xmlns="http://www.w3.org/2000/svg">
<path d="M26.7984 19.7844C24.3651 19.7844 22.5556 18.0063 22.3997 14.5117H33.6932C33.9422 9.27046 31.5404 5.55835 26.5809 5.55835C22.0262 5.55835 18.626 8.92716 18.626 14.1068C18.626 19.2865 21.9948 22.6553 26.6752 22.6553C30.4817 22.6553 33.2268 20.2849 33.726 16.8532H30.5131C30.1698 18.4439 28.8909 19.7857 26.801 19.7857L26.7984 19.7844ZM26.611 8.20911C28.3275 8.20911 29.8553 9.20756 30.1986 12.0156H22.587C23.0863 9.51942 24.5211 8.20911 26.611 8.20911Z" fill="white"/>
<path d="M39.3389 10.3623V5.93211H35.6582V22.2795H39.4018V13.9185C39.4018 10.5798 40.775 9.42671 43.1139 9.42671H44.7989V5.87053C44.4556 5.74605 44.1123 5.7146 43.5515 5.7146C41.4301 5.7146 39.9324 7.36821 39.3402 10.3636L39.3389 10.3623Z" fill="white"/>
<path d="M58.6508 17.6315V11.6107C58.6508 7.77277 56.7482 5.55835 52.1936 5.55835C48.2941 5.55835 45.549 7.46092 45.4232 11.6421H48.7304C48.8549 9.05295 50.0093 8.39779 51.8817 8.39779C53.8472 8.39779 54.9701 9.3648 54.9701 11.6736V12.3916L51.1951 13.0153C46.9838 13.7334 45.1113 15.4171 45.1113 18.2251C45.1113 21.2821 47.3886 22.6553 49.6974 22.6553C52.3495 22.6553 54.2206 21.096 55.0317 19.0362C55.0631 20.4395 55.1876 21.3764 55.468 22.2805H59.1487C58.8368 21.1576 58.6495 19.6914 58.6495 17.6315H58.6508ZM55.0317 16.2269C55.0317 18.723 53.3781 19.8774 51.2567 19.8774C49.6031 19.8774 48.8234 19.0663 48.8234 17.756C48.8234 16.3212 49.8533 15.4158 52.2237 15.0424L55.0317 14.606V16.2282V16.2269Z" fill="white"/>
<path d="M58.6337 3.76059V0L25.6284 0.00393093C20.2928 0.00393093 15.5639 3.44087 13.9142 8.51439L10.5755 18.7846L4.43016 0.00524124H0L7.89331 22.2805H12.9786L17.5568 9.35954C18.7453 6.00384 21.9189 3.7619 25.479 3.7619H58.6337V3.76059Z" fill="white"/>
</svg>
