<?xml version="1.0" encoding="UTF-8"?>
<svg id="Capa_2" data-name="Capa 2" xmlns="http://www.w3.org/2000/svg" viewBox="0 0 59.15 22.66">
  <defs>
    <style>
      .cls-1 {
        fill: #0b0b0b;
      }
    </style>
  </defs>
  <g id="Capa_1-2" data-name="Capa 1">
    <path class="cls-1" d="M26.8,19.78c-2.43,0-4.24-1.78-4.4-5.27h11.29c.25-5.24-2.15-8.95-7.11-8.95-4.55,0-7.95,3.37-7.95,8.55s3.37,8.55,8.05,8.55c3.81,0,6.55-2.37,7.05-5.8h-3.21c-.34,1.59-1.62,2.93-3.71,2.93h0ZM26.61,8.21c1.72,0,3.24,1,3.59,3.81h-7.61c.5-2.5,1.93-3.81,4.02-3.81Z"/>
    <path class="cls-1" d="M39.34,10.36v-4.43h-3.68v16.35h3.74v-8.36c0-3.34,1.37-4.49,3.71-4.49h1.69v-3.56c-.34-.12-.69-.16-1.25-.16-2.12,0-3.62,1.65-4.21,4.65h0Z"/>
    <path class="cls-1" d="M58.65,17.63v-6.02c0-3.84-1.9-6.05-6.46-6.05-3.9,0-6.64,1.9-6.77,6.08h3.31c.12-2.59,1.28-3.24,3.15-3.24,1.97,0,3.09.97,3.09,3.28v.72l-3.78.62c-4.21.72-6.08,2.4-6.08,5.21,0,3.06,2.28,4.43,4.59,4.43,2.65,0,4.52-1.56,5.33-3.62.03,1.4.16,2.34.44,3.24h3.68c-.31-1.12-.5-2.59-.5-4.65h0ZM55.03,16.23c0,2.5-1.65,3.65-3.78,3.65-1.65,0-2.43-.81-2.43-2.12,0-1.43,1.03-2.34,3.4-2.71l2.81-.44v1.62h0Z"/>
    <path class="cls-1" d="M58.63,3.76V0H25.63c-5.34,0-10.06,3.44-11.71,8.51l-3.34,10.27L4.43,0H0l7.89,22.28h5.09l4.58-12.92c1.19-3.36,4.36-5.6,7.92-5.6h33.15Z"/>
  </g>
</svg>