<svg width="89" height="34" viewBox="0 0 89 34" fill="none" xmlns="http://www.w3.org/2000/svg">
<path d="M40.2177 29.6913C36.5661 29.6913 33.8504 27.0229 33.6164 21.7784H50.5651C50.9387 13.9127 47.3342 8.3418 39.8913 8.3418C33.056 8.3418 27.9531 13.3975 27.9531 21.1708C27.9531 28.9441 33.0088 33.9998 40.0329 33.9998C45.7454 33.9998 49.865 30.4425 50.6142 25.2924H45.7926C45.2774 27.6797 43.3581 29.6933 40.2217 29.6933L40.2177 29.6913ZM39.9365 12.3199C42.5126 12.3199 44.8054 13.8183 45.3206 18.0324H33.8976C34.6468 14.2863 36.8001 12.3199 39.9365 12.3199Z" fill="white"/>
<path d="M59.0383 15.5506V8.90211H53.5146V33.4353H59.1327V20.8875C59.1327 15.877 61.1935 14.1466 64.7036 14.1466H67.2324V8.80969C66.7172 8.62288 66.202 8.57568 65.3604 8.57568C62.1768 8.57568 59.9291 11.0573 59.0403 15.5526L59.0383 15.5506Z" fill="white"/>
<path d="M88.0193 26.4605V17.4247C88.0193 11.6651 85.164 8.3418 78.3287 8.3418C72.4766 8.3418 68.357 11.1971 68.1682 17.4719H73.1315C73.3183 13.5863 75.0507 12.603 77.8607 12.603C80.8104 12.603 82.4956 14.0543 82.4956 17.5191V18.5967L76.8303 19.5327C70.5102 20.6103 67.7002 23.1372 67.7002 27.3513C67.7002 31.9389 71.1178 33.9998 74.5827 33.9998C78.5627 33.9998 81.3708 31.6597 82.588 28.5685C82.6352 30.6745 82.822 32.0805 83.2428 33.4374H88.7665C88.2985 31.7521 88.0173 29.5517 88.0173 26.4605H88.0193ZM82.588 24.3525C82.588 28.0985 80.1064 29.8309 76.9227 29.8309C74.4411 29.8309 73.2711 28.6137 73.2711 26.6473C73.2711 24.494 74.8167 23.1352 78.374 22.5748L82.588 21.92V24.3544V24.3525Z" fill="white"/>
<path d="M87.9937 5.64365V0L38.4614 0.00589928C30.4541 0.00589928 23.3572 5.16384 20.8815 12.7779L15.871 28.1907L6.64849 0.00786571H0L11.8458 33.4371H19.4775L26.3482 14.0462C28.1317 9.01017 32.8944 5.64561 38.2372 5.64561H87.9937V5.64365Z" fill="url(#paint0_linear_881_1311)"/>
<defs>
<linearGradient id="paint0_linear_881_1311" x1="6.62883" y1="24.3994" x2="78.2166" y2="-16.931" gradientUnits="userSpaceOnUse">
<stop offset="0.2" stop-color="white"/>
<stop offset="0.39" stop-color="#E20616"/>
<stop offset="0.49" stop-color="#FFE500"/>
<stop offset="0.64" stop-color="#FFF077"/>
<stop offset="0.76" stop-color="#15B8DC"/>
<stop offset="0.91" stop-color="#266DB4"/>
<stop offset="1" stop-color="#243F91"/>
</linearGradient>
</defs>
</svg>
